<svg width="50" height="55" viewBox="0 0 50 55" fill="none" xmlns="http://www.w3.org/2000/svg">
<path d="M44.149 0.705811H41.8585C40.8517 0.705811 40.8517 2.28807 41.8585 2.28807H44.149C46.5144 2.28807 48.4389 4.23171 48.4389 6.62071V24.9298C48.4389 27.3189 46.5145 29.2625 44.149 29.2625H41.5512C41.3798 29.2625 41.2132 29.3197 41.077 29.4253L36.3102 33.1212V30.0536C36.3102 29.6167 35.9608 29.2625 35.5297 29.2625H26.0306C25.2527 29.2625 24.5051 29.0544 23.8457 28.6587V19.7778C23.8457 18.1143 23.0098 16.6446 21.7406 15.7751V6.62071C21.7406 4.23171 23.665 2.28807 26.0306 2.28807H36.9674C37.9742 2.28807 37.9742 0.705811 36.9674 0.705811H26.0306C22.8043 0.705811 20.1796 3.35926 20.1796 6.62071V15.0798C19.8222 14.9933 19.4499 14.9461 19.0667 14.9461H4.7789C2.14386 14.9461 0 17.1136 0 19.7778V21.4861C0 22.5066 1.56098 22.5066 1.56098 21.4861V19.7778C1.56098 17.9861 3.00448 16.5284 4.7789 16.5284H19.0668C20.8412 16.5284 22.2848 17.9861 22.2848 19.7778V28.9737C22.2755 29.0435 22.2759 29.1139 22.2848 29.1832V34.216C22.2848 34.3155 22.2789 34.4146 22.27 34.5131H20.6605C18.8869 34.5131 17.4083 35.8106 17.1017 37.516C17.0308 37.5431 16.9626 37.581 16.8994 37.6303L13.4085 40.3625V38.2566C13.4085 37.8197 13.0592 37.4655 12.6281 37.4655H4.7789C3.00448 37.4655 1.56098 36.0078 1.56098 34.216V26.2329C1.56098 25.2125 0 25.2125 0 26.2329V34.2161C0 36.8803 2.14386 39.0478 4.7789 39.0478H11.8477V41.9729C11.8477 42.6075 12.6079 42.9882 13.1052 42.5992L17.0425 39.5177V48.4179C17.0425 50.4352 18.6656 52.0764 20.6606 52.0764H25.4502V53.9224C25.4502 54.5568 26.2104 54.9379 26.7076 54.5487L29.8666 52.0764H30.7999C32.7948 52.0764 34.4179 50.4351 34.4179 48.4179V47.0132C34.4179 45.9928 32.857 45.9928 32.857 47.0132V48.4179C32.857 49.5628 31.9342 50.4941 30.7999 50.4941H29.6003C29.4277 50.4941 29.2599 50.5521 29.1234 50.659L27.0111 52.312V51.2851C27.0111 50.8482 26.6617 50.494 26.2306 50.494H20.6605C19.5263 50.494 18.6034 49.5626 18.6034 48.4178V38.1717C18.6034 37.0268 19.5261 36.0954 20.6605 36.0954H30.7999C31.9341 36.0954 32.857 37.0269 32.857 38.1717V42.0555C32.857 43.0759 34.4179 43.0759 34.4179 42.0555V38.1718C34.4179 36.1544 32.7948 34.5133 30.7999 34.5133H23.8369C23.8428 34.4144 23.8458 30.4186 23.8458 30.4186C24.534 30.6991 25.2718 30.8449 26.0307 30.8449H34.7493V34.7225C34.7493 35.3555 35.5063 35.7366 36.004 35.3508L41.8157 30.8449H44.1491C47.3753 30.8449 50 28.1914 50 24.9299V6.62071C49.9999 3.35926 47.3752 0.705811 44.149 0.705811V0.705811Z" fill="#F9F6F3"/>
<path d="M36.9544 6.79713C35.9613 6.54567 34.9493 7.32392 34.9493 8.34173C34.9493 9.45376 34.5407 10.5255 33.7993 11.3588L31.6443 13.7775C31.5048 13.5651 31.2637 13.4245 30.9891 13.4245H26.7822C26.3501 13.4245 26 13.7719 26 14.2003V23.5886C26 24.017 26.3501 24.3644 26.7822 24.3644H30.9891C31.3052 24.3644 31.5767 24.1781 31.7001 23.9106C32.5518 24.4267 33.5388 24.7058 34.543 24.7058H41.9778C43.1139 24.7058 44.0511 23.728 43.9978 22.6041C43.9741 22.1064 44 15.4231 44 15.2747C44 14.1688 43.0928 13.2689 41.9801 13.2689L38.1138 13.2574L38.2739 12.8814C39.0055 11.163 38.885 9.17045 37.9521 7.55096C37.7343 7.1726 37.3799 6.90501 36.9544 6.79713C37.3799 6.90501 36.5287 6.68935 36.9544 6.79713C37.3799 6.90501 35.9614 6.54567 36.9544 6.79713ZM30.2069 22.8128H27.5643V14.9761H30.2069V22.8128ZM41.9778 14.8203C42.2304 14.8203 42.4358 15.0241 42.4358 15.2746C42.4358 15.4222 42.4342 15.8228 42.4322 16.3659C42.4206 19.3647 42.4129 22.2049 42.4352 22.6769C42.4433 22.8473 42.3598 22.9609 42.3093 23.0134C42.2219 23.1042 42.1042 23.1542 41.9778 23.1542H34.543C33.6567 23.1542 32.7894 22.8496 32.1005 22.2965L31.7712 22.0321V15.9779L34.9719 12.3857C35.9661 11.2682 36.5136 9.83202 36.5136 8.34162C36.5136 8.29777 36.5739 8.28639 36.594 8.32052C37.2866 9.52275 37.3759 11.002 36.8329 12.2776L36.2156 13.7277C36.1137 13.967 36.1394 14.2407 36.2836 14.4573C36.4281 14.6739 36.6721 14.8045 36.9337 14.8053L41.9778 14.8203Z" fill="#F9F6F3"/>
<path d="M6.77787 28.2335C6.34818 28.2335 6 28.6108 6 29.0762C6 29.5416 6.34818 29.9189 6.77787 29.9189H9.07084L8.64249 32.7254C8.57238 33.1845 8.85926 33.6183 9.28304 33.6942C9.32609 33.702 9.36871 33.7057 9.41082 33.7057C9.78462 33.7057 10.1143 33.413 10.1774 33.0003L10.6476 29.919H12.5242L12.0958 32.7255C12.0257 33.1846 12.3126 33.6184 12.7364 33.6944C12.7794 33.7021 12.8221 33.7058 12.8642 33.7058C13.238 33.7058 13.5677 33.4131 13.6307 33.0004L14.101 29.9191H17.2221C17.6518 29.9191 18 29.5418 18 29.0764C18 28.6111 17.6518 28.2338 17.2221 28.2338H14.3582L14.6719 26.1781H17.2221C17.6518 26.1781 18 25.8008 18 25.3354C18 24.8701 17.6518 24.4928 17.2221 24.4928H14.9292L15.3575 21.6862C15.4276 21.2272 15.1407 20.7934 14.717 20.7174C14.2927 20.6412 13.8927 20.9522 13.8226 21.4113L13.3524 24.4927H11.4758L11.9042 21.6861C11.9743 21.227 11.6874 20.7932 11.2636 20.7173C10.8388 20.6411 10.4395 20.9521 10.3693 21.4112L9.89901 24.4925H6.77787C6.34818 24.4925 6 24.8698 6 25.3352C6 25.8006 6.34818 26.1779 6.77787 26.1779H9.6418L9.32806 28.2335H6.77787ZM11.2187 26.1779H13.0952L12.7815 28.2335H10.905L11.2187 26.1779Z" fill="#F9F6F3"/>
<path d="M25.4906 40.3116C24.8582 39.7853 24.0168 39.5777 23.1729 39.7851C22.0913 40.0506 21 41.0724 21 42.7568C21 43.8052 21.3785 44.7152 22.1572 45.5389C22.7933 46.2117 23.7112 46.8515 25.1332 47.6136C25.248 47.6751 25.374 47.7058 25.5001 47.7058C25.6261 47.7058 25.7521 47.6751 25.8669 47.6136C28.3478 46.2842 30 44.9496 30 42.7568C30 41.0633 28.8699 40.0518 27.7499 39.8007C26.9084 39.612 26.0927 39.8123 25.4906 40.3116ZM28.4335 42.7568C28.4335 43.9396 27.6574 44.8142 25.4999 46.0146C23.3425 44.8141 22.5663 43.9395 22.5663 42.7568C22.5663 41.8768 23.0704 41.4394 23.5423 41.3235C23.6293 41.3022 23.7224 41.2902 23.8182 41.2902C24.1731 41.2902 24.5634 41.4559 24.804 41.9274C24.9411 42.1956 25.2182 42.362 25.5155 42.3558C25.8141 42.3497 26.0834 42.1726 26.2096 41.8991C26.4631 41.35 26.996 41.2535 27.4104 41.3464C27.9051 41.4572 28.4335 41.886 28.4335 42.7568Z" fill="#F9F6F3"/>
</svg>
