<svg width="25" height="18" viewBox="0 0 25 18" fill="none" xmlns="http://www.w3.org/2000/svg">
<path fill-rule="evenodd" clip-rule="evenodd" d="M25 8.59375C25 8.59375 20.3125 0 12.5 0C4.6875 0 0 8.59375 0 8.59375C0 8.59375 4.6875 17.1875 12.5 17.1875C20.3125 17.1875 25 8.59375 25 8.59375ZM1.83281 8.59375C2.58831 9.74199 3.45726 10.8114 4.42656 11.7859C6.4375 13.8 9.1875 15.625 12.5 15.625C15.8125 15.625 18.5609 13.8 20.575 11.7859C21.5443 10.8114 22.4132 9.74199 23.1688 8.59375C22.4133 7.44551 21.5443 6.37607 20.575 5.40156C18.5609 3.3875 15.8109 1.5625 12.5 1.5625C9.1875 1.5625 6.43906 3.3875 4.425 5.40156C3.45569 6.37607 2.58674 7.44551 1.83125 8.59375H1.83281Z" fill="#F9F6F3"/>
<path fill-rule="evenodd" clip-rule="evenodd" d="M12.5 5.55146C11.6597 5.55146 10.8539 5.88525 10.2597 6.47941C9.66559 7.07356 9.3318 7.8794 9.3318 8.71966C9.3318 9.55992 9.66559 10.3658 10.2597 10.9599C10.8539 11.5541 11.6597 11.8879 12.5 11.8879C13.3403 11.8879 14.1461 11.5541 14.7403 10.9599C15.3344 10.3658 15.6682 9.55992 15.6682 8.71966C15.6682 7.8794 15.3344 7.07356 14.7403 6.47941C14.1461 5.88525 13.3403 5.55146 12.5 5.55146ZM8.06451 8.71966C8.06451 7.5433 8.53182 6.41512 9.36364 5.5833C10.1955 4.75149 11.3236 4.28418 12.5 4.28418C13.6764 4.28418 14.8045 4.75149 15.6364 5.5833C16.4682 6.41512 16.9355 7.5433 16.9355 8.71966C16.9355 9.89603 16.4682 11.0242 15.6364 11.856C14.8045 12.6878 13.6764 13.1551 12.5 13.1551C11.3236 13.1551 10.1955 12.6878 9.36364 11.856C8.53182 11.0242 8.06451 9.89603 8.06451 8.71966Z" fill="#F9F6F3"/>
</svg>
