<svg width="87" height="54" viewBox="0 0 87 54" fill="none" xmlns="http://www.w3.org/2000/svg">
<path fill-rule="evenodd" clip-rule="evenodd" d="M49.9114 5.48267L50.2193 5.34933L50.0494 5.824L50.5006 5.41867L50.4475 5.17867L50.5483 4.96533C50.1821 5.05067 50.0016 5.09333 49.9114 5.48267ZM50.2352 5.28533C50.2458 5.27467 50.2617 5.312 50.2617 5.312C50.2617 5.312 50.2246 5.296 50.2352 5.28533ZM48.1122 6.58133C47.6451 6.592 47.677 6.90133 47.3957 7.10933L47.4541 7.136L47.6133 7.008C47.1568 7.648 46.8384 8.32 46.6526 9.02933L45.1506 9.40267L45.1029 9.69067L47.2099 9.424C47.5124 9.424 48.2396 9.456 48.2396 9.16267V8.90667H47.7247C47.7247 8.02667 48.5739 6.496 49.0835 6.11733L49.0092 6.064C48.9879 6.04267 48.9667 6.128 48.9561 6.13867C48.9455 6.15467 48.9136 6.192 48.8977 6.208C48.8499 6.26133 48.8234 6.28267 48.7703 6.336C48.6642 6.44267 48.5792 6.51733 48.4784 6.624C48.3298 6.78933 48.1547 7.09867 48.0432 7.29067C47.8946 7.54667 47.4647 8.528 47.4647 8.90667C47.3373 8.976 47.2736 9.03467 47.0772 9.03467H46.8225C46.9074 8.02667 48.4094 5.984 49.2002 5.80267C49.2745 6.02667 49.6885 5.53067 49.7893 5.38133C49.2692 5.44533 48.2183 6.18133 48.1122 6.58133ZM47.6823 7.05067L47.9317 6.59733L48.0167 6.672L47.6823 7.05067ZM44.7154 10.1067C45.8034 9.92533 47.9795 9.61067 49.0888 9.57333L49.1737 9.47733C48.1122 9.51467 46.2121 9.70667 45.071 9.856C44.7366 9.87733 44.7685 10.0587 44.7154 10.1067ZM58.828 9.296L58.7908 9.57867C59.0456 9.61067 59.3109 9.66933 59.5657 9.80267C59.6506 9.48267 59.0456 9.344 58.828 9.296ZM51.2648 6.128L51.4134 5.68L51.2648 5.67467L51.3391 5.15733C51.5302 5.104 51.6257 5.104 51.3922 5.024L51.4984 4.70933L52.1087 4.69333C51.7372 4.944 51.44 6.13867 51.2648 6.128ZM46.8915 11.5467L46.0794 11.6693L46.0847 11.984L45.2674 12.112L45.2621 11.8133C44.6411 11.8827 42.9746 12.336 42.396 12.5227C42.1944 12.5227 42.0192 12.704 41.9502 12.8587L42.3217 12.7947L42.465 12.912L45.2939 12.5973C45.4372 12.576 45.4691 12.624 45.5593 12.672L45.7451 12.5333C45.7504 12.8587 45.8088 12.9813 46.0688 13.0507H46.1325H46.4563V13.1787L46.6367 13.1733L46.711 12.9813H46.9658C46.9286 12.8373 46.9499 12.7893 46.7747 12.7893L45.9361 12.8693V12.6133L48.2343 12.4693L48.1865 11.392L46.8915 11.5467ZM57.9522 12.9173H58.207C58.1327 12.8107 58.1964 12.7893 58.0159 12.7893H57.7612C57.8355 12.896 57.7665 12.9173 57.9522 12.9173ZM58.2601 12.9973L62.0868 13.3013L61.763 13.1307L58.345 12.8053L58.2601 12.9973ZM47.7247 12.7893H47.0188C47.056 12.9333 47.0348 12.9813 47.2099 12.9813C47.3745 12.9813 47.3638 12.9653 47.4647 12.9173C47.4647 12.9173 47.5868 12.9813 47.5921 12.9813C47.7884 12.9813 47.868 12.8907 47.9158 12.72C47.8415 12.768 47.8468 12.7893 47.7247 12.7893ZM41.7432 13.2587L41.5999 13.552C41.8175 13.616 44.3651 13.04 44.5031 13.1093C44.5562 13.072 44.6623 12.9813 44.6942 12.9813C44.7048 12.9813 45.0392 13.216 45.0763 13.2373L45.2727 13.1787C45.2621 12.6613 44.8322 12.896 44.243 12.9173L41.7432 13.2587ZM45.347 12.9813L45.6708 13.0453C45.6601 12.9173 45.6761 12.784 45.5434 12.784C45.3842 12.7893 45.347 12.832 45.347 12.9813ZM47.9848 12.9173C47.9848 13.088 48.075 13.1093 48.1759 13.1787V12.7893C48.0803 12.8107 47.9848 12.8053 47.9848 12.9173ZM62.9625 13.52L62.6971 13.1893L62.4105 13.1467L62.1398 13.232L62.9625 13.52ZM45.1506 13.696C45.2037 13.8827 45.1241 13.8187 45.278 13.76C45.2992 14.0107 45.2408 13.9573 45.4691 14.016L45.4638 13.616L45.1506 13.696ZM34.0262 14.1493L34.9974 14.176C34.9709 13.856 34.2013 13.7707 33.8988 13.92L34.0262 14.1493ZM31.7758 14.2133H31.9669C31.9669 13.8507 31.7758 13.8507 31.7758 14.2133ZM60.659 14.1973C61.5825 14.3787 62.0124 14.7947 62.0868 15.5947C62.0921 15.6587 62.3468 15.1627 62.3787 15.2213L62.3893 13.9893L61.832 13.824L61.8055 13.92L60.6484 13.7707L60.659 14.1973ZM35.1195 14.2133L35.6927 14.2987L35.8095 14.4533L35.1142 14.3413V15.568H35.7564C35.8095 15.3387 35.8838 15.264 35.8838 14.9867L35.8785 14.416L35.7564 14.32L36.7807 14.5173V14.2933C36.2075 14.1227 35.6396 14.032 35.0664 13.984L35.1195 14.2133ZM30.2313 14.5333L30.5604 14.56L30.2313 14.6613V15.696H30.9372V14.4907L30.6294 14.5493L30.433 14.5067L30.9478 14.368L30.9585 14.208L30.9372 14.1493C30.5392 14.1813 30.2419 14.1387 30.2313 14.5333ZM22.4453 14.7413H22.7L22.7053 13.6267L22.4665 13.4667L22.4453 14.7413ZM24.2445 14.7413H24.3507L24.356 13.664H24.2498L24.2445 14.7413ZM24.7646 14.7307H24.8708V13.8613H24.7646V14.7307ZM28.6285 13.5307L28.4056 13.7387L28.1773 13.696L28.0181 13.904L27.7209 13.8827L27.6254 14.0427L27.3175 14.0853L27.3122 13.632L27.222 13.6373L27.2167 14.2347L26.7868 14.3787L26.3197 14.592L26.2985 13.6373L26.2083 13.6267L26.2136 14.7147L27.9385 14.048L29.5944 13.36L28.6285 13.5307ZM25.3591 14.7413L25.4493 14.7253V13.6747L25.3591 13.6907V14.7413ZM29.3981 14.6667C29.3981 14.8107 29.4511 14.8107 29.5254 14.928H29.3981V15.7707H30.104V14.736C29.9129 14.7787 29.7271 14.8747 29.5573 14.9227L29.552 14.8053C29.9076 14.6933 30.0721 14.7413 30.0986 14.416H29.8439C29.6634 14.4053 29.3981 14.5333 29.3981 14.6667ZM31.0699 15.1147L31.261 15.0507V14.7253H31.0699V15.1147ZM38.3465 15.12L37.7573 14.9867V15.504H38.5269L38.5057 15.3067L38.5269 14.8533L38.4101 14.8587L38.3465 15.12ZM36.9771 14.6667L36.8604 14.6613V15.0507C36.8604 15.2107 37.3593 15.504 37.4389 15.504H37.6936L37.6883 14.88L37.1151 14.6667C37.4548 14.6667 37.4283 14.736 37.4973 14.48L36.8285 14.3573L36.9771 14.6667ZM34.0156 15.6L34.8011 15.632C34.9497 15.632 34.9921 15.5893 34.9921 15.44V14.2773H34.541C34.3659 14.2773 34.1323 14.2667 34.0474 14.24C34.1695 14.64 34.1217 15.1307 34.0156 15.6ZM35.9581 15.568H36.4729C36.6215 15.568 36.7967 15.3973 36.7967 15.2427L36.7595 14.6133L35.974 14.4747L35.9581 15.568ZM31.0699 14.3413L31.3247 14.256V14.384L31.0699 14.4693V14.5973C31.2504 14.6133 31.3247 14.5973 31.3247 14.7893V14.9813C31.3247 15.1787 31.2504 15.1627 31.0699 15.1733V15.6907H31.3247C31.5476 15.6907 31.5741 15.6427 31.7917 15.6267L31.7121 14.8533C31.6803 14.5653 32.0412 14.3467 31.4521 14.3307L31.7015 14.192L31.7546 13.9147L31.0646 14.0747V14.3413H31.0699ZM62.5167 15.84L62.9572 15.808L62.9678 15.6213H62.5167V15.84ZM63.0952 15.9307L65.2235 15.792L65.5419 15.6373H63.1058L63.0952 15.9307ZM66.1841 15.632H65.6693V16.016L68.27 15.9573L68.2753 15.5147C68.185 15.5627 67.235 15.632 67.0811 15.632H66.6936C66.5291 15.632 66.5397 15.616 66.4389 15.568C66.3486 15.616 66.3327 15.632 66.1841 15.632ZM28.5595 15.312V15.7653H29.2654V14.9867L28.8036 15.1093V14.9813L29.2654 14.8587V14.5973C28.7506 14.72 28.5595 14.8373 28.5595 15.312ZM32.9753 15.7013H33.0655V15.8293H33.2566C34.058 15.4933 33.9731 14.5173 33.7714 14.2133L33.5113 14.2293L32.9753 14.24V15.7013ZM32.3543 15.7013H32.8798V14.24L32.2004 14.2507L32.3119 14.1653L32.8798 14.1547V13.8987L32.9753 13.856V14.1493L33.2566 14.144L33.4583 14.0907C33.5273 13.9947 33.437 13.8933 33.2247 13.824C32.9328 13.7707 32.6144 13.84 32.3649 14.0053C31.8926 14.3253 31.6856 15.0827 32.3543 15.7013ZM56.4396 15.9253L56.6625 16.0213L56.6307 15.728L56.4396 15.9253ZM56.7952 16.2827L57.0659 16.288L56.9916 16.4747L57.3206 16.7787L57.3153 16.4053L56.8005 15.9627L56.7952 16.2827ZM11.565 16.5653C11.634 16.8533 12.7645 16.736 13.2527 16.736C13.3058 16.7733 13.412 16.864 13.4438 16.864C13.6508 16.864 13.6933 16.6827 13.7623 16.528L11.565 16.5653ZM13.9586 17.12L14.1391 17.1147L14.2187 16.7947C13.948 16.8213 13.9586 16.8373 13.9586 17.12ZM17.366 16.7413V17.184H17.6898C17.6633 16.848 17.5359 16.6773 17.1697 16.704L17.366 16.7413ZM16.8565 17.1893H17.244V16.8C17.0264 16.8533 16.9096 16.9707 16.8565 17.1893ZM75.4138 17.2213L76.125 17.5733L76.2789 17.392L75.6049 17.008L75.4138 17.2213ZM58.0212 17.9093L58.0159 18.1547H58.207V17.8347L58.0212 17.9093ZM39.8166 18.288L40.013 18.2133L40.2678 18.288C40.1988 18.1867 40.1828 18.096 40.013 18.096H39.8219V18.288H39.8166ZM53.0216 18.032L53.9345 18L56.9757 18.384V18.3307L53.9345 17.9413L53.0216 17.8933V18.032ZM75.7057 18.4373H75.7694L75.7641 18.2187H75.7004L75.7057 18.4373ZM77.8871 19.0613L78.5717 19.0933L78.5081 19.024L77.8924 18.7413L77.8871 19.0613ZM61.2322 17.6853H61.556V17.8347H61.2322V19.0613V19.7707H61.6834C61.9275 19.7707 61.7046 19.7493 61.8745 19.8347L61.8904 16.656L61.6675 17.1947V16.8053L61.2322 16.672V17.6853ZM14.7335 20.048H17.1272V19.9467H14.7335V20.048ZM13.9958 20.8053L14.5531 20.672L14.4151 20.4853L14.4788 19.904H14.155L13.9958 20.8053ZM60.2875 19.7067H60.521L60.5317 19.856H60.2875V20.032C60.2875 20.2773 60.2132 20.4427 60.0805 20.5493L60.0062 20.2933C59.7568 20.464 59.6188 20.2827 59.6188 20.5547V20.816H60.9669V20.688L61.1633 20.672L60.9616 20.3627V17.84H60.8979L60.3831 18.5493V16.928L60.2769 16.7893V19.7067H60.2875ZM57.2251 21.6213L57.5648 21.712V20.8693H57.2251V21.6213ZM20.6142 21.744H20.7204L20.7575 22.4L21.2246 22.0747L21.1927 21.7493H21.7022L21.1131 21.0347L20.6142 21.744ZM60.59 21.712H60.9138V20.9333H60.59V21.712ZM59.6241 21.52C59.6241 21.776 60.1814 21.76 60.3671 21.7813L60.3353 20.9387H59.6294V21.52H59.6241ZM14.0913 20.9547V21.8453H15.1847V20.864L14.0913 20.9547ZM16.7769 21.84H17.175V21.0667L16.7769 21.0507V21.84ZM22.8699 21.5787L23.3529 21.6213V21.9467L23.5386 21.904V21.5787L23.873 21.568L23.4059 20.976L22.8699 21.5787ZM4.63342 20.032C4.6175 20.2133 4.63342 20.2933 4.44235 20.2933C4.30966 20.2933 4.32559 20.16 4.31497 20.032H4.63342ZM18.8468 22.704H20.0038V22.5547H18.8468V22.704ZM18.332 22.8107H18.5231V22.1013H18.332V22.8107ZM23.4112 22.2347L22.9017 22.5547C22.9973 22.912 23.1299 22.6187 23.6076 22.6187V22.0373L23.3369 22.0427L23.4112 22.2347ZM12.3505 22.8107C12.5575 22.8053 12.6742 22.832 12.6742 22.6187V22.3573C12.6742 22.144 12.5469 22.112 12.3505 22.096V22.8107ZM60.4574 22.8107H60.9722V21.9733H60.6484V22.752H60.521V21.9733H60.4574V22.8107ZM15.2484 23.3333H15.6358C15.5668 23.0827 15.5509 23.0827 15.2484 23.072V23.3333ZM37.5079 19.5787C36.7171 19.632 37.1151 19.9307 36.9187 20.1067L36.9134 23.2693L37.0727 23.584L37.6936 23.5947V23.3333V22.688H38.4632L38.4738 23.5893L39.0417 23.6693C39.1585 23.6747 39.2116 23.4293 39.2381 23.3333H39.047V22.944C39.047 22.6667 38.9197 22.6827 38.9197 22.4907C38.9197 22.3147 39.0099 22.24 39.1107 22.1653V22.2933H39.3655V19.7653H39.4929V19.6373L39.2487 19.76L39.1638 19.568L37.5079 19.5787ZM39.1691 22.1653C39.2859 22.0533 39.0576 22.2827 39.1691 22.1653V22.1653ZM14.155 22.7467H13.9003V22.5547C13.9003 22.32 13.7251 22.0373 13.5128 22.0373H13.1891V22.7467H13.5128V22.4853H13.7039V23.0027H13.0617V23.8453H13.9639V23.0667H14.0913V23.8453H15.1847V23.0027H14.155V22.7467H15.121V22.0373H14.155V22.7467ZM16.3417 23.5893C16.3417 23.3653 16.4691 23.4933 16.4691 23.264V23.0027H15.9542V23.456C15.9542 23.632 15.9224 23.632 15.8906 23.7813H16.3417V23.5893ZM18.2046 23.9147H18.3108V23.4613H18.2046V23.9147ZM24.5736 23.8507L24.3772 23.92L24.563 24.1867L24.5736 23.8507ZM21.0972 24.432H21.5483C21.5218 24.336 21.5377 24.24 21.4209 24.24C21.2511 24.2347 21.1715 24.3307 21.0972 24.432ZM42.9268 24.48L45.4531 24.4693L45.4797 24.3573L42.9215 24.368V24.48H42.9268ZM13.757 24.3093L13.8949 24.304V24.1067C13.8949 23.9573 13.8525 23.9147 13.7039 23.9147H13.0617V24.8213H13.9003L13.9109 24.4907L13.757 24.3093ZM14.0913 24.688H14.2187V24.816H14.7972V24.688H14.9883V24.816H15.1794V23.9733H14.086V24.688H14.0913ZM16.278 24.752V24.56H15.8269V24.8213H16.5965V24.7573H16.278V24.752ZM22.8062 25.8987L22.7956 25.6213L22.578 25.8987H22.8062ZM13.3164 24.9493C13.3377 25.0027 13.3801 25.1893 13.3801 25.2747V25.8987H14.6115C14.7654 25.824 15.0414 25.5893 15.2484 25.5307V25.1413C15.2484 24.992 15.2059 24.9493 15.0573 24.9493H13.3164ZM1.79923 22.24C5.42954 22.2507 6.15666 22.2027 1.48609 22.144L7.38799 22.1013L7.60029 22.432L1.79923 22.24ZM2.45205 22.6187C4.8298 22.6773 4.44766 22.5333 2.12829 22.4747L4.56973 22.432V22.7413L2.45205 22.6187ZM54.306 13.968L54.3644 13.7813L54.5555 13.7867L54.4334 13.968H54.306ZM52.4219 16.0853C52.4219 16.144 52.4219 16.1973 52.4272 16.2453H52.8093V17.3867H52.3263V17.0453L52.252 16.8533L52.2785 16.7893L52.3263 16.832V16.2507H52.4219V16.0853ZM54.5342 18.4373L54.927 18.48V18.608L55.0544 18.6293L55.0597 18.352L54.5448 18.288L54.5342 18.4373ZM52.8411 17.6267L53.0216 17.6693V17.808L53.0694 17.7333L57.1561 18.2827L57.3631 18.3627L57.5648 18.2933L57.4003 18.5173L57.4268 18.6827H57.1083V18.4907H56.981V18.6187L55.0597 18.3733L55.1021 18.4533L56.9173 18.688L57.188 18.928L54.9854 18.6827L54.7943 18.6187L54.1521 18.5547V18.4267L54.4918 18.3467L54.0247 18.2933C53.9186 18.0427 54.1468 18.0907 53.5736 18.096C53.34 18.096 53.1012 18.096 52.8411 18.0907V17.6267ZM73.0626 17.76L73.8322 17.7653V17.8347H73.5084V17.872L73.8216 17.8773L73.8322 18.1547L73.0573 18.1493V17.952C73.0573 17.8453 73.1422 17.888 73.4447 17.8827L73.45 17.8347H73.0626V17.76ZM53.5152 18.1547H53.9026V18.2187H53.5152V18.1547ZM72.0913 18.224H72.6115V18.4427H72.0913V18.224ZM72.6805 18.4373V18.2187H72.9352V18.4373H72.6805ZM74.2355 18.4373L74.2143 18.2133L74.761 18.208L74.7716 18.4373H74.2355ZM52.8465 18.2507L53.9663 18.352V18.544L52.8465 18.4747V18.2507ZM40.894 18.5813L42.2581 18.608L42.6296 18.7467L40.9312 18.7627L40.894 18.5813ZM35.6343 18.7413H36.1492V18.9333L35.6343 18.9973V18.7413ZM54.3803 18.7787L54.858 18.832L54.8633 18.9387H54.5395V19.0027L55.4577 19.0987L55.8346 19.3813L55.8929 19.3227V19.5787L55.1021 19.4773L55.1234 28L55.3091 28.6347L54.3485 28.6293V25.856H54.4758L54.3379 25.472L54.4758 25.4667V25.3333H54.3485L54.4705 24.752H54.2848C54.3166 24.608 54.3591 24.5867 54.3485 24.4907L54.2901 23.9733L54.2954 22.112L54.1309 21.968V21.84L54.2848 21.712L54.2158 21.376V19.8613L54.3485 19.5147L54.2689 19.1307C53.8336 19.136 53.8973 19.2853 53.9026 19.776L53.8973 28L54.0141 28.0053L54.237 28.6293H52.9579C52.9579 25.5093 52.9579 25.264 52.9579 22.304L53.3188 22.3787L52.9632 22.0907L52.9951 19.184C53.1914 19.0773 53.4409 19.0827 53.6691 19.1307L53.8177 18.9173L54.0194 19.0293L54.3803 18.7787ZM65.5313 19.0613H67.9197V19.1253L65.5313 19.52V19.0613ZM72.6168 19.1893C72.4045 19.1893 72.431 19.3067 72.4257 19.5147H72.2983V19.3227C72.2983 19.1787 72.2452 19.1787 72.1709 19.0613H72.362V18.736H72.4894V19.0613H73.3598V19.1893H72.6168ZM76.1887 19.1787L73.7738 19.1893C73.7897 19.0933 73.8481 19.0613 73.9649 19.0613H74.0922C74.2143 19.0613 74.209 19.0827 74.2833 19.1253C74.3841 19.0507 74.1506 19.0613 74.4107 19.0613L76.1834 19.0507V19.1787H76.1887ZM73.4553 19.216C73.4235 18.992 73.4819 19.0507 73.7632 19.0613C73.6889 19.328 73.6464 19.1467 73.4553 19.216ZM70.9449 19.4507H72.2028V19.5147H70.9449V19.4507ZM72.5 19.4507H74.2833V19.5573H72.5V19.4507ZM74.3523 19.4507H74.9998V19.5573H74.3523V19.4507ZM75.0423 19.4667L75.2493 19.4507L75.2333 19.6587L75.0423 19.4667ZM57.4374 19.5787V19.4507H57.5648V19.5787H57.4374ZM56.4821 20.496L56.4715 25.0773H56.2167C56.1848 25.2213 56.153 25.2267 56.153 25.4027V28L56.3228 28.624H55.7019V23.264L55.5639 23.0773L55.5745 20.288H55.7019L55.7072 19.6427L55.9089 19.6533C56.5882 19.6107 56.4821 20.3413 56.4821 20.496ZM69.0767 19.776H68.6892V19.584H69.0767V19.776ZM70.9768 19.6427C71.3536 19.632 71.3642 19.3653 71.4544 19.712L70.9502 19.7173L70.9768 19.6427ZM68.6892 19.968C68.9281 19.9893 68.9281 19.9893 68.944 20.2293C68.7105 20.208 68.7105 20.208 68.6892 19.968ZM75.5412 20.2293L75.4881 20.144L76.2736 20.1547L76.2524 20.2293H75.5412ZM76.539 19.968L76.8734 20.1493C76.8203 20.3467 76.799 20.272 76.799 20.4213C76.799 20.4213 76.7991 25.2267 76.8203 25.3333H76.5655V25.5947L76.8256 25.5413L76.8362 26.048L76.3745 26.016L76.3479 20.1067L76.5443 20.2987V19.968H76.539ZM75.2493 20.096C75.3926 20.1333 75.4403 20.112 75.4403 20.288V20.48H75.2493V20.672L75.0051 20.6773L75.0264 20.224L75.2493 20.2187V20.096ZM76.2152 20.4907C76.1569 20.7413 76.0772 20.8747 75.8278 20.9387V20.8107H76.0189L76.0242 20.5653L76.2152 20.4907ZM75.0051 20.768L75.5146 20.8107L75.5465 26.0107L74.9892 26.0587L74.9467 25.36L75.0529 24.784V24.224L75.0688 23.4987L74.9945 22.7253L74.9627 22.0587L74.9945 21.472L75.0051 20.768ZM31.1973 20.7893V21.1307C31.1973 21.232 31.2185 21.4987 31.2344 21.8027H31.4945V20.7893H31.1973ZM75.7004 21.2587C75.9339 21.4293 75.7747 21.312 75.7641 21.712L76.0666 21.3547L76.2152 21.3227L76.0772 21.7707H75.8278L75.7004 21.9627V21.2587ZM77.2449 21.456H77.4996L77.4253 21.648L77.5792 21.7707L77.4837 22.2987C77.3192 22.288 77.2449 22.304 77.2449 22.1067V21.456ZM28.9204 21.952C29.0318 22.144 29.0106 21.92 29.0106 22.1653C29.0106 22.544 28.8408 23.04 28.6232 23.2L28.7505 22.8747L28.6816 22.6187L28.7187 22.544L28.6338 21.9413L28.9204 21.952ZM32.4445 22.6667V23.9147H30.8735C30.8895 23.7227 30.9213 23.5893 31.1283 23.5893H31.6219V22.6667H32.4445ZM45.8671 24.2987H43.4151V24.1067H46.0157L45.8671 24.2987ZM58.2707 24.4053L58.9766 24.4853L59.2366 24.4693V26.9547H59.0456V25.1467H59.173L59.157 25.0667L58.9076 25.1147L58.0796 25.1253L57.7559 25.1467V24.5333L58.2707 24.6613V24.4053ZM62.0018 24.4L62.2937 24.3947L62.2407 26.9547H62.1929V26.4373H62.1292V26.9547H62.0655V26.3093L62.1929 26.2773V26.0533L62.1133 26.0587L62.0443 25.088H61.6781V25.7973L61.694 26.3147L61.6781 26.96H61.5507V24.4907L62.0018 24.4ZM60.521 24.4053L61.1633 24.48V26.9547H60.9722V25.0827L60.4998 25.2107L60.521 25.2907L60.1389 25.2053V25.744H60.7174V25.8933H60.1389V26.96H59.9478V24.4747H60.2716C60.4149 24.4747 60.4149 24.528 60.5264 24.6027V24.4053H60.521ZM64.9315 25.088V25.0827L65.2659 25.0133L65.0908 25.2747C65.4835 25.4667 65.1598 25.4027 64.974 25.312V25.4827H65.4517V24.784H64.9315V25.088ZM31.5847 25.4027V25.728L31.3937 25.664V25.408H31.5847V25.4027ZM65.3455 25.92C65.3774 25.776 65.4145 25.6747 65.4464 25.6213H64.8997H64.8307V25.5573V24.7253V24.6613H64.8519V23.968H64.8307V23.8933V23.152V23.088V23.0613V22.9973V22.3253V22.2613V22.256V22.192V21.4987V21.4347V21.4293V21.3653V20.6027V20.5387H64.8679V20.3307H65.6162V21.3493H65.5738V21.3707V21.4347V21.44V21.504V22.1973V22.2613V22.2667V22.3307V23.0027V23.0667V23.0933V23.1573V23.8293H65.595V23.8933V24.7253V24.7893H65.5738V25.552V25.616H65.5631C65.5844 25.6747 65.595 25.776 65.595 25.9147C65.595 25.92 65.7648 26.192 65.786 26.24H65.595V26.112L65.4092 26.1867L65.1332 25.8613L65.3455 25.92ZM37.8847 25.984H38.2721C38.235 26.128 38.2562 26.176 38.0811 26.176H37.89V25.984H37.8847ZM64.767 25.7867H64.8944V26.112H64.767V25.7867ZM58.4671 26.7573C58.5785 26.6453 58.3503 26.8747 58.4671 26.7573V26.7573ZM57.7187 25.7813H57.7665L57.8195 26.112H58.3981C58.5732 26.112 58.5732 26.08 58.7218 26.048V26.9547H58.207L58.1698 26.88L58.6528 26.6187C58.6157 26.48 58.6422 26.432 58.4617 26.432H58.2707V26.24H57.8195V26.432H58.1433V26.56H57.7028L57.7187 25.7813ZM62.453 26.176H63.4826V26.5013C63.4826 26.6507 63.5251 26.6933 63.6737 26.6933H66.6989V26.24H66.8263V26.5653C66.8263 26.7893 66.7149 26.656 66.6353 26.9547H63.5463L63.5198 26.6933L63.4826 26.9547H62.5804C62.5485 26.576 62.453 26.8213 62.453 26.5653V26.176ZM56.3441 25.2693H56.4715V28.624H56.3441V25.2693ZM57.6922 26.9547C57.6922 26.672 57.655 26.816 57.8195 26.6933V26.9547H57.6922ZM51.1746 2.69333H51.3444V3.51467L51.1746 3.6V2.69333ZM52.5492 2.71467L52.6395 2.62933V3.57333H52.5492V2.71467ZM52.8465 2.624H53.0163V3.584H52.8465V2.624ZM40.618 17.8933L40.841 18.3787L40.979 18.368L41.4354 18.2507L41.2019 18.1813L41.6052 17.888L40.618 17.8933ZM29.8757 13.28L32.4711 12.6613C35.4645 12.56 37.147 13.0667 38.3942 13.6533L38.5004 13.744C37.2372 13.4453 34.5092 12.6507 32.7577 12.9547L29.6687 13.488L29.8757 13.28ZM51.1428 2.06933H51.3285V2.4H51.1428V2.06933ZM50.957 2.08H51.0578V2.368H50.957V2.08ZM50.4899 2.11733C50.5165 2.10667 50.543 2.10667 50.5695 2.11733V2.45867L50.4899 2.53333V2.11733ZM58.4936 10.32C58.7165 10.3467 59.0509 10.4587 59.2738 10.56L59.2526 11.5573L58.9447 11.5093L58.966 10.6507L58.4936 10.32ZM46.4616 10.3253L46.4403 10.336L46.4987 10.3627L46.5518 10.4053L46.5996 10.4587L46.5836 10.4533H46.5677H46.5518H46.5359L46.4138 10.4907L46.4032 10.6293L46.3289 10.752L46.3448 10.944L46.2705 11.12L46.3926 11.312L46.4403 11.4187L46.573 11.4347H46.5836H46.5943H46.6049H46.6155L46.5677 11.4827L46.5146 11.52L46.4616 11.5413L46.4032 11.5467V11.4667L46.2652 11.4133L46.1484 11.1733L46.1219 10.9387L46.1113 10.704L46.1856 10.4853L46.3077 10.3787L46.4616 10.3253ZM28.8461 13.3653H29.345V12.896H28.3684V13.3387L24.4037 13.0933L23.804 13.5627L28.4586 13.4773L28.8461 13.3653ZM38.4579 13.7013H39.5778V13.232H38.4579V13.7013ZM47.1622 10.9653L47.3001 11.3173L47.5921 11.2907L47.2365 10.976L47.1622 10.9653L46.78 10.3627L46.6208 10.3413C46.7641 10.5333 46.8172 10.8693 46.7376 11.232L47.1622 10.9653ZM51.0578 1.936L50.8455 1.94133L50.8402 2.38933C50.6704 2.416 50.5802 2.496 50.4846 2.63467L50.5271 2.704L50.8084 2.77333V2.64533H50.9995L50.9941 2.576L53.0588 2.54933L53.1118 2.75733C53.2657 2.752 53.4887 2.69333 53.5789 2.55467L53.5683 2.13333C52.8465 2.07467 53.2233 1.62667 52.7509 1.14667C52.2839 0.672 52.1724 0.965333 52.0928 0C52.045 0.0106667 52.0132 0.0159998 51.9866 0.0373332C51.9389 0.229333 52.0556 0.389333 51.8327 0.741333C51.4559 1.02933 51.164 1.16267 51.0578 1.936ZM56.6307 10.1013C56.8589 10.2667 56.8907 10.816 56.6731 11.1307L56.9969 11.056L57.2463 11.312L57.1296 10.656L56.9544 10.1333L56.6307 10.1013ZM56.0999 10.5653L56.5776 10.608L56.5882 10.56L56.4821 10.4213L56.4768 10.32L56.3812 10.2453L56.3228 10.1493L56.2061 10.1173H56.1583H56.1477H56.153L56.1477 10.1227L56.1902 10.0693L56.2326 10.0267L56.291 10L56.3759 9.98933L56.6201 10.1013L56.7103 10.3573L56.7474 10.592L56.7103 10.8267L56.6147 11.0187L56.4927 11.1467L56.3759 11.1947L56.291 11.1893L56.2379 11.168L56.2008 11.1307L56.1636 11.0827H56.2061L56.3918 11.1147L56.5245 10.96L56.5404 10.768L56.5617 10.6613L56.0946 10.6187V10.5653H56.0999ZM58.2813 10.2827L58.5944 10.5067L58.6051 11.4187L58.2654 11.3333L58.2813 10.2827ZM53.011 12.9227L53.0004 12.9173V12.9227H53.011ZM55.4259 14.6613L53.892 15.7813V15.664L55.3993 14.6187L55.4259 14.6613ZM55.4683 15.056C55.3463 15.056 55.2295 15.136 55.1499 15.2693C55.065 15.408 55.0119 15.5947 55.0066 15.808L55.1658 16.3253C55.2507 16.4587 55.341 16.56 55.463 16.56L55.7815 16.3467C55.8664 16.208 55.9195 16.0213 55.9195 15.808C55.9195 15.6 55.8664 15.408 55.7815 15.2693C55.7019 15.136 55.5904 15.056 55.4683 15.056ZM59.3163 16.192L59.4118 16.3307L59.4012 22.0267L59.3322 21.7067L59.3163 16.192ZM58.2972 16.048V17.2533H58.0902V16.8533L58.0159 16.928V16.8H58.0902V16.0373L58 16.032C57.7877 16.0267 57.5807 16.016 57.3843 16.016H57.3684V15.936L57.1986 15.856H57.3896C58.3928 15.872 59.4012 15.936 60.399 16.032V15.792L60.8501 15.8933V16.08C61.2269 16.1227 61.7258 16.2187 62.039 16.2667L61.8691 16.3733C61.5613 16.3307 61.2163 16.2827 60.8501 16.2453V16.7573L60.4043 16.7253L60.399 16.1973C59.9797 16.1547 59.5392 16.1227 59.0987 16.0907C58.8333 16.0747 58.5626 16.0587 58.2972 16.048ZM55.3463 25.2907H55.4949L55.5002 28.624H55.3516L55.3463 25.2907ZM59.3322 27.696V27.312L57.6815 27.3547V27.7387L59.3322 27.696ZM59.8364 27.312V27.6533L62.3044 27.488V27.2693L59.8364 27.312ZM74.4903 17.04L76.1303 17.904L76.1569 17.8987V17.9147L76.2789 17.9787L76.1515 17.984C76.1356 18.1333 76.1038 18.1333 75.9021 18.1547C75.9074 18.08 75.9074 18.032 75.9127 18L75.7482 18.0107L73.9489 17.0987L73.535 17.0613L73.8746 17.3973L73.7154 17.392L72.7813 17.0453L71.1094 17.0347V16.8587C70.7591 16.8587 70.4248 16.8533 70.0798 16.8533L70.0745 15.9733L68.2753 14.8427L68.7848 14.8533L70.5362 15.9093H70.5575V15.92L70.5681 15.9253L70.5575 15.9413L70.5628 16.6667L73.9596 16.672L74.4903 17.04ZM53.8283 16.48L55.6488 16.7733V16.752H55.7125L55.7231 16.9867H55.6594L55.6435 16.896L53.8283 16.6347V16.48ZM53.8177 16.3467L55.2773 16.5867L55.2667 16.5813L55.256 16.576C55.187 16.5333 55.1287 16.4693 55.0809 16.3893C54.9854 16.24 54.927 16.032 54.927 15.808L54.9747 15.4667L54.6298 15.5093L53.8124 16.1013V15.968L55.41 14.8693L55.4418 14.9333L55.3569 14.9973C55.394 14.9867 55.4312 14.9813 55.4683 14.9813C55.532 14.9813 55.5957 14.9973 55.6541 15.0293L55.4418 14.8533L55.532 14.7733L56.5564 15.696L56.5298 15.7387L56.0044 15.312L55.8558 15.2267C55.9513 15.376 56.0097 15.584 56.0097 15.808L56.1212 16.3733L55.9142 16.5813L55.5426 16.6293L57.1508 16.8853L57.2516 16.9653L53.823 16.432L53.8177 16.3467ZM68.9652 18.9867H68.7476L68.7423 19.072L68.6574 18.9867H68.2116L68.047 19.1253H68.1744V19.4507C68.1744 19.6 68.132 19.6427 67.9833 19.6427C67.7657 19.6427 67.8294 19.536 67.6967 19.3973L67.8454 19.7013L67.6596 20.224H67.9833V20.032L68.1744 19.7707L68.6096 19.4987L68.8272 19.312L68.7529 19.12H69.1404L69.1298 19.2907L69.6446 19.12L69.5809 19.5467L69.2677 19.7013L69.7507 19.7173L69.2677 20.4L69.3474 20.4107L70.101 19.4987L69.7985 19.696L69.7189 18.9867H69.0767C69.0236 18.9973 68.9918 18.992 68.9652 18.9867ZM75.3554 19.44H77.3139L77.1918 19.5733L75.3554 19.5893V19.44ZM70.929 19.808H76.6451L76.5602 19.9573H70.7804L70.929 19.808ZM70.8281 20.16H74.9998V20.224H70.8281V20.16ZM71.4438 25.76L72.3832 25.792L72.3089 26.0107H71.4438V25.76ZM69.082 25.7867L70.0957 25.7387L70.0798 26.0107H69.1457L69.082 25.7867ZM65.9028 25.792H67.5057V26.0107H65.9028V25.792ZM64.9315 20.832L65.4517 21.3493V21.3333H64.9315V20.832ZM64.9315 22.1813H65.4517V21.488L64.9422 21.472L64.9315 22.1813ZM64.9315 22.992H65.4517V22.32H64.9315V22.992ZM64.9315 23.8187H65.4517V23.0987L64.9475 23.0827L64.9315 23.8187ZM64.9528 24.6507L65.4729 24.6667V23.8773L64.9528 23.9093V24.6507ZM66.1098 21.552H66.3699V21.9893H66.1098V21.552ZM66.1257 20.7573H66.3858V21.1947H66.1257V20.7573ZM62.4423 24.448L64.6715 24.3573V24.48L62.4423 24.4907V24.448ZM62.4795 24.9067L64.645 24.816V24.9387L62.4795 24.9493V24.9067ZM62.437 25.408L64.7246 25.3333V25.456L62.437 25.4507V25.408ZM65.7436 24.416L67.9727 24.3253V24.448L65.7436 24.4587V24.416ZM65.733 24.8587L67.9621 24.768V24.8907L65.733 24.9013V24.8587ZM65.7277 25.376L67.9568 25.2853V25.408L65.7277 25.4187V25.376ZM62.4954 15.1467L68.2593 14.9387V15.2107H62.4954V15.1467ZM62.4954 15.3973H68.2753V15.4667H62.4954V15.3973ZM45.0657 11.04L45.2568 10.8587L45.2515 11.6427L45.0657 11.6267V11.04ZM42.7039 16.784L42.3907 16.2613H41.7751L42.7039 16.784ZM25.9907 16.7467L25.996 16.6293L26.9036 16.368L26.5586 16.5707L26.7231 16.6187L26.5055 16.928L26.5002 16.6507L26.1021 16.8267L25.9907 16.7467ZM43.6327 24.864L43.8025 24.88L43.6327 24.9653V24.864ZM43.6327 26.2613V26.112V25.9627V25.8133V25.6533V25.504V25.3547V25.2053V25.056L44.535 24.9227V25.0827V25.2427V25.4027V25.5627V25.7227V25.8827V26.0427V26.2027L44.4235 26.208L44.312 26.2133L44.2006 26.2187L44.0891 26.224L43.9777 26.2293L43.8662 26.2347L43.7548 26.24L43.6327 26.2613ZM43.6327 28.464V28.2133V27.9627V27.712V27.4613V27.2107V26.96V26.7093V26.4587L43.7441 26.4533L43.8556 26.448L43.9671 26.4427L44.0785 26.4373L44.19 26.432L44.3014 26.4267L44.4129 26.4213L44.5243 26.416V26.6667V26.9173V27.168V27.4187V27.6693V27.92V28.1707V28.4213L44.4129 28.4267L44.3014 28.432L44.19 28.4373L44.0785 28.4427L43.9671 28.448L43.8556 28.4533L43.7441 28.4587L43.6327 28.464ZM42.9905 26.2987V24.8213H43.1603L43.4735 24.8533V25.0293V25.2053V25.3813V25.5573V25.7333V25.9093V26.0853V26.2613L43.4151 26.2667L43.3567 26.272L43.2983 26.2773L43.2399 26.2827L43.1816 26.288L43.1232 26.2933L43.0648 26.2987H42.9905ZM43.1073 28.5707V28.32L42.9905 28V27.7493V27.4987V27.248V26.9973V26.7467V26.496L43.0489 26.4907L43.1073 26.4853L43.1656 26.48L43.224 26.4747L43.2824 26.4693L43.3408 26.464L43.3992 26.4587L43.4575 26.4533V26.704V26.9547V27.2053V27.456V27.7067V27.9573V28.208V28.4587L43.4098 28.48H43.3514L43.293 28.4853L43.2346 28.4907L43.1762 28.496L43.1179 28.5013L43.0595 28.5067L43.1073 28.5707ZM32.7205 25.728C32.7789 25.632 32.3119 25.5787 32.832 25.5413L32.9063 25.728H32.7205ZM30.0562 20.4853H29.6528V20.6293L29.207 20.5493V20.224C29.0743 20.3147 28.9628 20.496 28.8195 20.496L27.7474 20.512L27.7793 20.0107L27.4078 20.3467C27.5245 20.592 27.5351 21.1253 27.7952 21.1253H27.9863V21.3867C27.9863 21.6373 28.3525 22.2507 28.5011 22.3573L28.7559 21.1947L29.4405 21.8933H29.1539L29.138 23.136C29.138 23.3173 29.0902 23.2907 28.9151 23.344L29.0743 23.6533L28.6019 23.952L28.6179 24.6347L30.8098 24.624L30.8152 24.5387L31.797 24.592L32.0306 24.3627V24.624H32.2216C32.3702 24.624 32.4127 24.6667 32.4127 24.816V24.848H24.3029V24.9173H32.418V25.2693C32.418 25.4827 32.3012 25.456 32.0943 25.4613C32.1155 25.552 32.1473 25.6373 32.1845 25.7227H29.5891V25.6533H29.7218L29.5891 25.3973H29.4618H29.207V25.6533L29.3874 25.6053L29.5254 25.728H29.2229V25.7973H32.2216C32.2906 25.9573 32.3596 26.112 32.3596 26.24V26.6933C32.28 26.688 32.1579 26.656 32.004 26.6133C31.5847 26.448 31.1601 26.3147 30.7302 26.208C30.6559 26.1867 30.5816 26.1653 30.5179 26.1547C30.019 26.0373 28.9841 25.856 28.4374 25.856V23.9787C28.4374 23.7813 28.2463 23.7653 28.2463 23.5253L28.4693 23.2213L28.4639 22.5813L28.05 21.9733H27.7262L27.705 24.416C27.705 24.5653 28.2304 24.624 28.2357 24.624L28.1827 25.28L28.05 25.4667L28.103 25.8987H25.0194V25.2747C25.0194 25.04 24.7859 25.0667 24.5683 25.0133C24.494 25.2853 24.4409 25.1253 24.4409 25.3387V25.8987H24.2498L24.2657 24.5867L24.4462 24.4373C24.563 24.5173 24.5577 24.5653 24.701 24.5653H25.0247V23.92C25.0247 23.7173 24.9079 23.7387 24.7646 23.6587L24.8336 23.3333H24.5789V23.5947H24.4515V23.3333H24.2604V23.2L24.6532 23.1947L24.2233 22.7147L24.287 22.6507L25.03 23.328C25.4068 23.1253 25.9801 22.9067 25.996 22.3573H26.187V22.032L25.306 22.0533L26.0703 21.3333L26.3463 22.0267L26.2454 22.8053H25.9907C25.7465 22.8053 25.651 23.168 25.3962 23.264L25.4387 23.5573L25.2158 23.9093H25.6669V24.096H25.2158V24.6293L27.0787 24.5493C27.0787 23.7333 27.2008 24.0907 26.0491 24.0907V23.904H27.3069L27.3547 23.3227H27.1636L27.3547 22.9493V20.5387H24.892C24.6266 20.5387 24.34 20.688 24.2657 20.5173H23.666V20.528L22.1852 20.608H18.7141V23.84H22.2011V23.968H18.7141V24.4853L19.42 24.4693L21.0388 24.48L21.1556 24.8107H21.4793C21.5165 24.6667 21.543 24.5493 21.7341 24.5493H21.7978C22.1481 24.5493 21.7712 24.768 22.2489 24.8107L22.2436 24.5013L21.9782 24.4107L22.2436 24.1653L22.2542 23.776V23.52H22.1268V23.2587C22.1268 23.0453 21.6385 22.7253 21.4156 22.6987C21.0866 22.656 20.4337 22.6987 20.0675 22.6987V22.5493H21.1556L21.0813 22.3573L21.1396 22.3787L21.2936 22.144L21.7341 22.544H22.7V22.608L21.8668 22.672L22.1905 23.0667L22.4453 22.992C22.5939 23.1947 22.7 23.0933 22.7 23.3173V23.5787H22.509V23.904H23.0875V24.0107H22.509V24.6133C22.716 24.512 23.7297 24.416 23.7297 24.7413V25.584H22.509L22.5143 25.888H22.1109L22.2542 25.584H21.7394V25.888H21.0123L21.2246 25.6533H21.6757V25.4613H19.8128C19.5899 25.4613 19.3723 25.6747 19.3723 25.8933H19.3086V24.944H18.7301L18.7725 25.2053L18.7937 25.8933H18.6027V25.5253C18.6027 25.3013 18.5549 25.2747 18.539 25.072H18.2842V25.8933H15.8109V24.944H17.0529V24.6187C16.9361 24.592 16.4107 24.3573 16.4107 24.3573C16.1878 24.3573 16.1612 24.4053 15.9596 24.4213L15.8322 24.2933V24.1653H15.9596V24.016L17.1803 24.0373V23.776C16.9096 23.8507 17.0688 23.904 16.8565 23.904H16.6654V22.9973H16.9892V22.88H16.6654C16.7132 22.2987 16.9043 22.976 16.9892 22.5227L17.1007 22.448L17.9499 22.6187V22.352L18.2046 22.4267L18.2152 22.6667L17.4456 22.8213V22.9973L18.0029 23.008L17.6261 23.9093H18.0454L18.332 23.0133H18.5921C18.608 22.8107 18.6557 22.784 18.6557 22.56V21.8507H18.1462L18.1993 21.6427L17.9499 21.8613L17.228 21.7067L17.504 21.4933L18.1144 21.344L18.2258 21.6107L18.3108 21.616L18.5231 21.0773H18.1993C18.2789 20.96 18.3267 20.9653 18.3267 20.8213V19.9147H18.0719C17.8066 19.9147 17.7482 20.208 17.7535 20.4853L18.0082 20.56L17.8066 20.592L17.3023 21.3333V20.944L17.3501 20.88L17.2387 20.816V20.5547C17.2387 20.352 17.3554 20.1813 17.4297 20.0373H17.2387V19.84L15.8906 19.856L14.7972 19.84V19.712H18.7884L18.8468 19.9093L27.3547 19.8453V19.2L27.2645 19.0987L27.222 18.928L25.3378 18.9547L24.823 18.9387H24.2445V18.9173H23.6925L23.6766 19.3227L23.7297 19.2853L21.6704 19.2587V19.2L23.4059 19.1307C23.3316 19.024 23.3953 19.0027 23.2149 19.0027L23.1512 19.008L20.646 19.0507L19.489 19.0027V19.264H19.3616V19.072L19.1706 19.088L18.1409 19.072V19.3973H17.6898L15.6889 19.456L15.5031 19.5947C15.0997 19.2427 14.0701 19.4773 13.5712 19.5947V19.7227H13.9586L13.6986 20.9493L13.8578 20.9547L13.6986 21.4667L13.8419 21.472L13.6986 21.856H13.0564V20.16C13.0564 19.984 13.0882 19.984 13.1148 19.824L12.9131 19.8987L12.9661 19.6853L12.7379 19.4507L12.4089 19.4133L12.6105 19.3867V19.2107L11.9683 19.1307C12.2496 18.8853 16.7981 18.9387 17.6261 18.9387C19.5156 18.9387 21.3785 18.8107 23.3741 18.7947L23.3422 18.7307H23.4165H23.7031H26.065V18.7413H27.015C27.1583 18.7413 27.1583 18.688 27.2751 18.608L27.7899 18.672L27.8536 18.624L39.1744 18.4747V18.6027H39.3655L39.3549 18.976L39.2912 18.9653L39.1001 18.6667L38.9887 18.672L39.1691 19.0187L39.0523 19.024L38.9303 18.6667H38.6649C38.7551 18.8 38.856 18.8427 38.856 19.0187C38.7392 19.0187 38.6331 19.0187 38.4579 19.0187C38.3093 18.8213 37.9962 18.9813 37.8263 19.0507V18.6613H37.5026V18.8533H37.6936V18.9813L37.1257 18.976L37.0461 18.656H36.94L36.9187 19.0453H36.7914V18.656C36.7171 18.6347 36.6162 18.592 36.6003 18.592C36.4517 18.592 36.526 18.6133 36.3455 18.656V19.0453H35.0611V19.5573L35.836 19.5627C36.0112 19.6213 36.1226 19.776 36.1651 20.0213L36.1598 23.248L36.0324 23.5733H35.4539V22.6667H34.6153V23.5893L34.0103 23.6L33.9041 23.072V19.7067H33.7714V19.5733C33.9359 19.6533 34.9284 19.5467 34.9284 19.2533V19.0613H34.2225V19.0027L35.1885 18.9973H35.576V18.736L34.6737 18.7413H34.2862L33.3787 18.7253L33.1929 18.864C33.0761 18.784 33.0814 18.736 32.9381 18.736L32.8108 18.7467L32.3596 18.736C32.1739 18.7413 32.1473 18.864 31.9722 18.864C31.8501 18.864 31.9297 18.736 31.7174 18.736H31.3937V18.864V18.784L28.3737 18.8L27.9067 18.8053L27.6625 18.8107L27.6466 19.1893V19.8507L30.0615 19.7867V20.4853H30.0562ZM32.6091 26.6987V25.7973H32.9275L32.9859 25.9467L33.0549 25.92C33.0443 25.8667 33.0284 25.8293 33.0178 25.7973H35.2097L35.3053 25.984H35.629C35.6237 25.9307 35.6131 25.8613 35.5919 25.7973L42.3854 25.8827L42.4704 25.7333H38.6914C38.7233 25.696 38.7445 25.648 38.7817 25.6H38.3358V25.7333H35.576C35.5335 25.6213 35.4645 25.536 35.3796 25.536C35.2734 25.536 35.1885 25.5733 35.1885 25.664C35.1885 25.6853 35.1938 25.712 35.1991 25.7333H34.3287L34.2915 25.664C34.3499 25.632 34.4189 25.6213 34.4189 25.536C34.4189 25.4773 34.3499 25.408 34.2915 25.408C34.1801 25.408 34.0686 25.6107 33.9996 25.7387H33.0124C33.0071 25.7067 33.0018 25.664 33.0018 25.6053V25.4133H32.6144V24.9333H35.0877L35.1248 25.2213H35.438L35.491 24.9387H36.0908C36.1067 25.184 36.1704 25.216 36.4729 25.2267V24.9387L42.396 25.024L42.4385 24.8747H36.4729V24.8427H36.2128L36.2182 24.6293L36.7277 24.7787V24.0693L35.6449 24.0747L35.576 24.24L35.7723 24.4747L36.0855 24.8213V24.8533H35.5016L35.507 24.8213L35.1089 24.816L35.3106 24.576L35.6609 24.688L35.4433 24.1173H34.1589C34.2385 24.2347 34.2862 24.2293 34.2862 24.3787C34.2862 24.6507 34.0474 24.4853 33.9466 24.736L35.0452 24.624L35.0717 24.848H32.8691V24.7093H33.6971C33.8457 24.7093 33.9519 24.6453 33.9519 24.4907V24.2987L33.6971 24.0373L30.6825 24.1013C30.6984 23.8987 30.7462 23.872 30.7462 23.648L30.7302 23.52L30.7462 23.0027L30.7302 22.8107L30.7462 22.2933V20.48H30.7249V19.7707H30.7462V19.5093H32.7099C32.9063 19.5093 33.1239 19.7013 33.1239 19.8987V23.264C33.1239 23.52 32.8691 23.4613 32.8691 23.7173V23.9093H38.9144C39.0842 23.9093 39.1054 24.0053 39.1426 24.048H39.1373L37.147 24.1013H37.0461C36.7914 24.1013 36.8497 24.4213 36.7914 24.6827L37.147 24.7147H38.8135L39.1638 24.6133L39.5459 24.7147H41.8653L41.6583 24.0427H39.4398C39.5035 23.8347 39.5406 23.904 39.875 23.904L40.1298 23.776V23.904L40.772 23.872L41.8016 23.904L42.1891 24.8107H42.6296V25.4933V26.176V26.688H32.6091V26.6987ZM31.8873 20.6667L31.8077 20.496L31.8607 19.9573L31.6166 19.9307V20.6667H31.8873ZM31.8395 21.808C31.866 21.472 31.8926 21.136 31.8979 20.7947H31.6166V21.808H31.8395ZM31.8077 19.7707L31.9987 19.824L32.004 22.496H31.8077C31.8077 22.304 31.8183 22.112 31.8289 21.9253H31.6166V22.032H31.4945V21.9253H31.2398C31.261 22.4587 31.2504 23.0667 31.0699 23.1947V19.7653H31.1973V20.656H31.4945V19.904L31.2716 19.8773L31.261 19.76L31.8077 19.7707ZM51.1746 15.7813H51.164H51.1587H51.1534H51.1481H51.1428V15.7493V15.7173V15.6853V15.6533V15.6213V15.5893V15.5733V15.5413V15.5093V15.4773V15.4453V15.4133V15.3813C51.1428 15.264 51.1215 15.2907 51.0048 15.2907H50.9676H50.9198H50.8721H50.8243H50.7765H50.7288H50.681H50.6332C50.4475 15.2907 50.405 15.2427 50.405 15.4347V15.4613V15.4933V15.52V15.5467V15.5733V15.6V15.632V15.6587V15.6853V15.712V15.7387H50.3997H50.3944H50.3891H50.3838H50.3785H50.3732H50.3679H50.3626L50.3254 15.6213V15.5893V15.5627V15.5733V15.5467V15.52V15.488V15.4613C50.3254 15.2267 49.6036 15.2267 49.6036 15.4613V15.488V15.52V15.5467V15.5733V15.6V15.6267C49.5877 15.6747 49.5877 15.712 49.6036 15.744V15.7707H49.5983H49.593H49.5877H49.5824H49.5771H49.5717H49.5664H49.5611H49.5558H49.5505H49.5452H49.5399H49.5346H49.5293H49.524H49.5187V15.744V15.7173V15.6907V15.664V15.632V15.6053V15.5733V15.5467V15.52V15.488V15.4613C49.5187 15.2587 49.455 15.3173 49.2586 15.3173H49.2055H49.1525H49.0994H49.0463H48.9932H48.9402H48.8871H48.834H48.7809H48.7279H48.6748V15.3493V15.376V15.408C48.6642 15.488 48.6589 15.5733 48.6748 15.6427V15.6747V15.7013V15.728V15.7547V15.7813H48.6695H48.6642H48.6589H48.6536H48.6482H48.6429H48.6376H48.6323H48.627H48.6217H48.6164H48.6111H48.6058H48.6005H48.5952H48.5899V15.7547V15.728V15.7013V15.6747V15.6427V15.616V15.5733V15.5467V15.52C48.6005 15.4773 48.6058 15.4347 48.5899 15.376V15.3493V15.3067C48.3457 15.2693 48.0644 15.264 47.9105 15.3067H47.8574H47.8044V15.3387V15.3653V15.3973V15.424V15.4507V15.4773V15.5093V15.536C47.8044 15.5947 47.8044 15.6533 47.8044 15.712V15.7387V15.7653H47.799H47.7937H47.7884H47.7831H47.7778H47.7725H47.7672H47.7619H47.7566H47.7513H47.746H47.7407H47.7354H47.7301H47.7247H47.7831V15.7387V15.712C47.7831 15.6533 47.799 15.6 47.799 15.5413L47.7831 15.5147V15.4827V15.456V15.4293V15.4027V15.3707V15.344V15.3067H47.7354H47.6876H47.6398H47.5124H47.4647H47.4169H47.3691H47.3214H47.2736H47.2258H47.1781H47.1303H47.0825H47.0348H46.987H46.9392V15.3387V15.3653V15.3973V15.424V15.4507V15.4773V15.5093V15.536V15.5627V15.5893V15.616V15.648V15.6747V15.7013V15.728V15.7547H46.9339H46.9286H46.9233H46.918H46.9127H46.9074H46.9021H46.8968H46.8915H46.8862H46.8809H46.8756H46.8702H46.8649H46.8596H46.8543V15.728V15.7013V15.6747V15.648V15.616V15.5893V15.5733V15.5467V15.52V15.488V15.4613V15.4347V15.408V15.376V15.3493V15.3067H46.8012H46.7482H46.7216H46.6686H46.6155H46.5624H46.5093H46.4563H46.4032H46.3501C46.1856 15.3067 46.0423 15.2373 46.0423 15.424V15.4507V15.4773V15.5093V15.536V15.5627V15.5893V15.616V15.648V15.6747V15.7013V15.728V15.7547H46.037H46.0317H46.0264H46.021H46.0157H46.0104H46.0051H45.9998H45.9945H45.9892H45.9839H45.9786H45.9733H45.968H45.9627H45.9574V15.728V15.7013V15.6747V15.648V15.616V15.5893V15.5733V15.5467V15.52V15.488V15.4613V15.4347C45.9574 15.2587 45.8565 15.3173 45.6973 15.3173H45.6442H45.5911H45.5381H45.485H45.4319H45.3788H45.3258H45.2727H45.2196H45.1665C45.0869 15.3173 45.1135 15.3653 45.1135 15.4347V15.4613V15.488V15.52V15.5467V15.5733V15.6V15.6267V15.6587V15.6853V15.712V15.7387V15.7653H45.1082H45.1029H45.0975H45.1294H45.1241H45.1188H45.1135H45.1082H45.1029H45.0975H45.0922H45.0869H45.0816H45.0763H45.071H45.0657V15.76V15.7547V15.7493V15.744V15.7387V15.7333V15.728V15.7227V15.7173V15.712V15.7333V15.728V15.7227V15.7173V15.712V15.7067V15.7013V15.696V15.6907V15.6853V15.68V15.6747V15.6693V15.664V15.68V15.6747V15.6693V15.664V15.6587V15.6533V15.648V15.6427V15.6373V15.632V15.6267V15.6213V15.616V15.6107V15.6267V15.6213V15.616V15.6107V15.6053V15.6V15.5947V15.5893V15.584V15.5787V15.5733V15.568V15.5627V15.5573V15.5733V15.568V15.5627V15.5573V15.552V15.5467V15.5413V15.536V15.5307V15.5253V15.52V15.5147V15.5093V15.504V15.52V15.5147V15.5093V15.504V15.4987V15.4933V15.488V15.4827V15.4773V15.472V15.4667V15.4613V15.456V15.4507V15.4667V15.4613V15.456V15.4507V15.4453V15.44V15.4347V15.4293V15.424V15.4187V15.4133V15.408V15.4027V15.3973V15.4133C45.0657 15.2853 45.0869 15.3067 44.9118 15.3067H44.8587H44.8056H44.7526H44.6995H44.6464H44.5933H44.5403H44.4872H44.4341H44.381H44.328H44.2749H44.2218V15.312V15.3173V15.3227V15.328V15.3333V15.3387V15.344V15.3493V15.3547V15.36V15.3653V15.3707V15.376V15.3813V15.3867V15.392V15.3973V15.4027V15.408V15.4133V15.4187V15.424V15.4293V15.4347V15.44V15.4453V15.4507V15.456V15.4613V15.4667V15.472V15.4773V15.4827V15.488V15.4933V15.4987V15.504V15.5093V15.5147V15.52V15.5253V15.5307V15.536V15.5413V15.5467V15.552V15.5573V15.5627V15.568V15.5733V15.5787V15.584V15.5893V15.5947V15.6V15.6053V15.6107V15.616V15.6213V15.6267V15.632V15.6373V15.6427V15.648V15.6533V15.6587V15.664V15.6693V15.6747V15.68V15.6853V15.6907V15.696V15.7013V15.7067V15.712V15.7173V15.7227V15.728V15.7333V15.7387V15.744V15.7493V15.7547V15.76V15.7653V15.7707V15.776V15.7813V15.7867V15.792V15.7973V15.8027V15.808V15.8133V15.8187V15.824V15.8293V15.8347V15.84V15.68V15.6853V15.6907V15.696V15.7013V15.7067V15.712V15.7173V15.7227V15.728V15.7333V15.7387V15.744V15.7493V15.7547V15.76V15.7653V15.7707V15.776V15.7813V15.7867V15.792V15.7973V15.8027V15.808V15.8133V15.8187V15.792V15.7653V15.7387V15.712V15.68V15.6533V15.5733V15.5467V15.52V15.488V15.4613V15.4347V15.408V15.376V15.3493V15.3067H44.2112H44.2006H44.19H44.1794H44.1687H44.1581H44.1475H44.1369H44.1263H44.1157H44.1051H44.0944H44.0838H44.0732H44.0626H44.052V15.3013V15.296V15.2907V15.2853V15.28V15.2747V15.2693V15.264V15.2587V15.2533V15.248V15.2427V15.2373V15.232H44.0626H44.0732H44.0838H44.0944H44.1051H44.1157H44.1263H44.1369H44.1475H44.1581H44.1687H44.1794H44.19H44.2006H44.2112H44.2218V15.2267V15.216V15.2053V15.2V15.1893V15.1787V15.168V15.1573V15.1467V15.136V15.1253V15.1147V15.104V15.0933H44.2271H44.2324H44.2377H44.243H44.2484H44.2537H44.259H44.2643H44.2696H44.2749H44.2802H44.2855H44.2908H44.2961H44.3014H44.3067V15.104V15.1147V15.1253V15.136V15.1467V15.1573V15.168V15.1787V15.1893V15.2V15.2107V15.2213V15.232V15.2427V15.2533V15.2587H44.3598H44.4129H44.466H44.519H44.5721H44.6252H44.6783H44.7313H44.7844H44.8375H44.8906H44.9436H44.9967L45.1506 15.1947V15.1893V15.184V15.1787V15.1733V15.168V15.1627V15.1573H45.1559H45.1612H45.1665H45.1719H45.1772H45.1825H45.1878H45.1931H45.1984H45.2037H45.209H45.1294H45.1347H45.14H45.1453H45.1506V15.1627V15.168V15.1733V15.1787V15.184V15.1893V15.1947C45.1506 15.248 45.1347 15.2587 45.2037 15.2587H45.2568H45.3098H45.3629H45.416H45.4691H45.5221H45.5752H45.6283H45.6814H45.7344C45.8087 15.2587 45.9945 15.3013 45.9945 15.216V15.2107V15.2053V15.2V15.1947V15.1893V15.184V15.1787V15.1733V15.168V15.1627H45.9998H46.0051H46.0104H46.0157H46.021H46.0264H46.0317H46.037H46.0423H46.0476H46.0529H46.0582H46.0635H46.0688H46.0741H46.0794V15.168V15.1733V15.1787V15.184V15.1893V15.1947V15.2V15.2053V15.2107V15.216C46.0794 15.3013 46.313 15.2587 46.3873 15.2587H46.4403H46.4934H46.5465H46.5996H46.6526H46.7057H46.7588H46.8119H46.8649H46.918V15.2533V15.248V15.2427V15.2373V15.2V15.1947V15.1893V15.184V15.1787V15.1733V15.168V15.1627V15.1573V15.152V15.1467V15.1413H46.9233H46.9286H46.9339H46.9392H46.9445H46.9499H46.9552H46.9605H46.9658H46.9711H46.9764H46.9817H46.987H46.9923H46.9976H47.0029V15.1467V15.152V15.1573V15.1627V15.168V15.1733V15.1787V15.184V15.1893V15.1947V15.2V15.2053V15.2107V15.216V15.2213V15.2267H47.0507C47.2842 15.2427 47.5124 15.248 47.746 15.2267H47.7937H47.7831V15.2213V15.216V15.2107V15.2053V15.2V15.1947V15.1893V15.184V15.1787V15.1733V15.168V15.1627V15.1573V15.152V15.1467V15.1413H47.7884H47.7937H47.799H47.8044H47.8097H47.815H47.8203H47.8256H47.8309H47.8362H47.8415H47.8468H47.8521H47.8574H47.8627H47.868V15.1467V15.152V15.1573V15.1627V15.168V15.1733V15.1787V15.184V15.1893V15.1947V15.2V15.2053V15.2107V15.216V15.2213V15.2267H47.9211H47.9742C48.1334 15.2267 48.4147 15.2267 48.6536 15.2267V15.2213V15.216V15.2107V15.2053V15.2V15.1947V15.1893V15.184V15.1787V15.1733V15.168V15.1627V15.1573V15.152V15.1467V15.1413H48.6589H48.6642H48.6695H48.6748H48.6801H48.6854H48.6907H48.696H48.7013H48.7066H48.7119H48.7172H48.7225H48.7279H48.7332H48.7385V15.1467V15.152V15.1573V15.1627V15.168V15.1733V15.1787V15.184V15.1893V15.1947V15.2V15.2053V15.2107V15.216V15.2213V15.2267H48.7915H48.8446H48.8977H48.9508H49.0038H49.0569H49.11H49.1631H49.2161H49.2692H49.3223C49.3754 15.2267 49.5824 15.2533 49.5824 15.2V15.1947V15.1893V15.184V15.1787V15.1733V15.168V15.1627V15.1573V15.152V15.1467V15.1413H49.5877H49.593H49.5983H49.6036H49.6089H49.6142H49.6195H49.6248H49.6301H49.6354H49.6407H49.646H49.6514H49.6567H49.662H49.6673V15.1467V15.152V15.1573V15.1627V15.168V15.1733V15.1787V15.184V15.1893V15.1947V15.2V15.2053C49.6673 15.248 50.3891 15.248 50.3891 15.2053V15.2V15.1947V15.1893V15.184V15.1787V15.1733V15.168V15.1627V15.1573V15.152V15.1467V15.1413H50.3944H50.3997H50.405H50.4103H50.4156H50.4209H50.4262H50.4315H50.4369H50.4422H50.4475H50.4528H50.4581H50.4634H50.4687H50.474V15.1467V15.152V15.1573V15.1627V15.168V15.1733V15.1787V15.184V15.1893V15.1947V15.2V15.2053C50.474 15.2587 50.6492 15.232 50.7022 15.232H50.75H50.7978H50.8455H50.8933H50.9411H50.9888H50.9676H51.0154C51.0791 15.232 51.1534 15.264 51.1534 15.1947V15.1893V15.184V15.1787V15.1733V15.168V15.1627V15.1467V15.1413V15.136V15.1307H51.1587H51.164H51.1693H51.1746H51.1799H51.1852H51.1905H51.1958H51.2011H51.2064H51.2118H51.2171H51.2224H51.2277H51.233H51.2383V15.136V15.1413V15.1467V15.152V15.1573V15.1627V15.168V15.1733V15.1787V15.184C51.2383 15.2533 51.8858 15.2213 51.9495 15.2213C52.0609 15.216 52.1459 15.2907 51.9495 15.296C51.8433 15.296 51.2383 15.2693 51.2383 15.3867V15.4187V15.4507V15.4827V15.5147V15.5467V15.5787V15.6107V15.6427V15.6747C51.2224 15.7387 51.2542 15.7813 51.1746 15.7813ZM73.9171 26.8533H74.5752V27.5147H73.9171V26.8533ZM71.672 26.848H72.3302V27.5093H71.672V26.848ZM69.2731 26.8693H69.9312V27.5307H69.2731V26.8693ZM45.7291 24.848L51.976 24.8L51.923 24.9333L45.7291 24.912V24.848ZM15.7419 20.9387H16.3895V22.72H15.7419V20.9387ZM39.4716 18.2187L11.7932 18.8587C11.703 18.8587 11.703 18.6987 11.7879 18.6987L39.4663 18.0587L39.4716 18.2187ZM59.7833 10.1973C59.8682 10.3787 59.64 10.5333 59.4224 10.528C59.4171 10.1547 59.2366 9.984 58.9235 9.856C58.6369 9.92533 58.7537 9.952 58.7324 9.824L58.7271 9.79733V9.81333C57.6497 9.58933 55.463 9.48267 54.2476 9.488V9.36C55.187 9.472 59.4436 9.39733 59.7833 10.1973ZM46.5677 9.99467C46.7853 9.968 47.0082 9.94133 47.2311 9.91467C47.2258 9.90933 47.2258 9.904 47.2205 9.89333L47.6664 9.85067C47.6611 9.856 47.6611 9.86133 47.6558 9.86667L47.8309 9.85067V9.83467L48.2608 9.79733V9.81333L48.3033 9.808V9.792L48.3882 9.79733C48.6376 9.776 48.9083 9.776 49.1525 9.73867C49.2639 9.73333 49.3807 9.72267 49.4921 9.71733C49.9273 9.69067 49.9963 9.68533 50.4422 9.66933L50.8933 9.47733C50.8986 9.51467 51.0101 9.616 51.0154 9.64267C51.5673 9.62133 51.9813 9.616 52.5227 9.61067C52.8358 9.57867 53.1649 9.58933 53.4303 9.61067C53.5895 9.61067 53.7434 9.616 53.9026 9.616L53.8443 9.44533C52.4272 9.43467 50.4899 9.328 49.179 9.552L49.4497 9.37067C50.9676 9.29067 52.4537 9.28 53.9292 9.30133L53.7859 9.152L52.7509 9.13067L52.6235 9.00267L52.6448 9.2L52.4325 9.06667C51.9813 9.06667 51.6682 9.104 51.2171 9.08267V9.15733H50.8933L50.9039 9.08267L50.7075 9.056L51.1321 6.86933C50.8561 7.43467 50.6332 8.55467 50.5165 9.10933L49.869 9.15733C49.6832 9.15733 49.7787 9.11467 49.6991 9.22133L48.6907 9.28L48.3033 9.296V8.97067C48.3033 8.69333 48.4678 8.05333 48.7332 7.45067C49.0675 6.704 49.5399 6.08 49.9592 5.83467C49.922 5.86667 49.9167 5.904 49.9698 5.92C49.6779 6.07467 49.2533 6.656 49.0198 7.27467L49.1047 7.66933C49.2055 7.27467 49.248 7.17333 49.4072 6.93867L50.0282 6.688L50.1768 6.61867L50.4156 6.18667L50.4262 6.45333L50.2883 6.64C50.6545 6.64 50.5324 6.61867 50.681 6.32533L50.5483 6.06933C50.8721 6.04267 50.7978 5.94133 50.9358 5.68L50.681 5.808C50.7022 5.54667 50.8296 5.37067 50.9623 5.184C51.0101 5.12 51.4028 4.72533 51.3869 4.70933H51.233L50.7075 5.18933L50.6757 4.96C50.6757 4.77333 50.6969 4.84267 50.8031 4.768L50.8349 4.896C50.9782 4.82133 51.0578 4.75733 51.0578 4.57067C51.0525 3.82933 50.9888 3.728 51.8327 3.728H52.8624C53.0375 3.728 53.0375 3.76 53.1861 3.792C53.218 4.17067 53.3135 3.92533 53.3135 4.18133V4.76267L53.7646 4.95467L53.4462 5.60533C53.5099 5.53067 53.8389 5.072 53.8814 5.00267C55.1393 5.29067 56.7581 6.8 56.981 7.41867L56.6094 7.54667V7.68L57.103 7.47733C57.2994 7.86133 57.6179 8.352 57.7505 9.104L57.8249 8.848L57.9682 9.16267C58.2282 9.17333 58.483 9.20533 58.743 9.26933L58.6847 9.568C57.5489 9.35467 56.2698 9.24267 55.0437 9.184C54.789 8.29333 54.5289 7.59467 54.4387 7.43467C54.3485 7.26933 54.4281 7.66933 54.8421 9.19467L54.0141 9.17867L54.2052 9.376L54.0566 9.616C54.1627 9.648 54.3803 9.62667 54.5289 9.65333C56.5405 9.712 58.2548 9.88267 59.1464 10.1653L59.1411 10.176C59.1783 10.2027 59.1836 10.272 59.173 10.4053L58.7059 10.2453C58.7271 10.24 58.7484 10.2347 58.7696 10.2293C58.7271 10.2187 58.69 10.208 58.6475 10.2027C58.6422 10.208 58.6369 10.2133 58.6316 10.224L57.9363 10.1013L57.9522 10.08L57.9257 10.0747L57.9363 10.1013L57.5807 10.0267C57.517 10.0213 57.4533 10.0107 57.3896 10.0053L56.9491 9.95733H56.9226V9.96267C56.7846 9.96267 56.7262 9.94667 56.5511 9.94667L56.0522 9.92533C56.0362 9.92533 55.6647 9.92 55.6806 9.888L55.7178 9.872C55.6541 9.86667 55.5957 9.86667 55.532 9.86133L55.4896 9.89867H55.1021L55.0968 9.84L54.9429 9.83467C54.8208 9.936 54.72 10.032 54.6351 10.1173H54.4971C54.5767 10.0373 54.6828 9.94133 54.8049 9.82933C54.0937 9.80267 53.34 9.79733 52.5652 9.80267C52.4962 9.808 52.4272 9.81333 52.3582 9.81867C52.1246 9.84 51.8911 9.86133 51.6576 9.89333C51.7 9.86667 51.7425 9.84 51.7956 9.81333C51.6629 9.81867 51.5302 9.81867 51.3922 9.824C51.3975 9.85067 51.4028 9.88267 51.4081 9.92L51.2383 9.92533L51.0685 9.93067L50.8986 9.936L50.7288 9.94133L50.0388 9.96267L49.8106 9.88267C49.5717 9.89867 49.3276 9.90933 49.0888 9.92533C48.4731 9.968 47.8627 10.0213 47.2789 10.0853C46.5677 10.16 45.8937 10.256 45.2674 10.3627H45.2621L45.2568 10.8427C44.7313 10.832 44.312 10.6347 44.6146 10.3253C44.7101 10.1973 45.8406 10.032 46.5677 9.99467ZM52.2096 12.7093H52.3953C52.4431 12.656 52.5386 12.6667 52.6766 12.6613L52.666 12.7093L53.0641 12.704V12.5333L53.0959 12.3733L52.2945 12.3893L52.1193 12.352L52.0344 12.304V12.6613H52.1618L52.2096 12.7093ZM51.8433 12.7093H51.907V12.464H51.7796C51.8168 12.6453 51.838 12.5813 51.8433 12.7093ZM51.6257 12.7147H51.7107V12.4693L51.4559 12.3947C51.4134 12.4693 51.3869 12.4747 51.3869 12.5333C51.3922 12.64 51.5037 12.6933 51.6257 12.7147ZM50.6545 12.7147L51.2436 12.72L51.2383 12.704L51.1958 12.336L50.9358 12.2827L50.9411 12.5973C50.7341 12.4587 50.6545 12.2187 50.5536 12.5973L50.6545 12.7147ZM50.5802 12.72C50.5324 12.5547 50.4422 12.4053 50.2936 12.4053L48.298 12.464V11.6853C48.298 11.4347 48.3935 11.744 48.4253 11.36L50.7925 11.2533L51.7956 11.2427V11.1733L51.5886 11.1307L51.3869 11.0027L51.2011 10.5707L51.2542 10.336L51.3922 10.144L51.5939 10.016L51.8433 9.92533L51.9548 9.936L52.0556 10.0053L52.1512 10.048L52.2361 10.1013L52.2308 10.096H52.2361H52.2202H52.1406H52.0716V10.4267L52.1512 10.5227H52.5068C52.4855 10.2987 52.3741 10.08 52.1406 9.96267L52.4643 9.968L52.8465 10.5707L52.7456 11.136L52.3582 11.2107L52.3104 11.0933C52.4272 10.9973 52.5015 10.8213 52.5068 10.64H52.0663V11.0293H52.0026V10.64H51.6841V10.528H52.0026V10.1013L51.8593 10.096L51.5673 10.288L51.3922 10.336L51.4877 10.512L51.5249 10.8693L51.769 10.9653L51.9707 11.056L52.1353 11.088H52.2149L52.1299 11.136L52.0397 11.1733L51.9601 11.1893V11.264L52.9314 11.2533C52.9314 11.376 53.0481 11.4453 53.1224 11.4453C53.34 11.4453 53.2976 11.3653 53.2498 11.2533C54.3219 11.264 55.3887 11.296 56.4608 11.3493V11.488L56.6147 11.3013L56.8324 11.4187L57.6179 11.4347C57.8036 11.4347 57.7506 11.5307 57.7877 11.6107L57.6179 11.6V11.7707L57.6709 11.824L57.9151 11.5787L57.9416 11.4347L58.3291 11.5093L58.3344 11.9467L58.7377 11.7173L58.4617 11.6853V11.4933H58.5891V11.6213H58.7165V11.4933L58.8439 11.4187L58.8704 11.6213C59.5763 11.7173 60.4839 11.9893 60.9722 12.224L61.0093 12.032L61.1526 12.2933C61.8055 12.528 62.0602 12.6933 62.3787 12.9867C61.1951 12.784 59.8682 12.672 58.4564 12.5707V12.0853H58.3291V12.5387H57.7505L57.7718 11.9573H57.6869V12.5387C56.3653 12.4907 55.5002 12.3733 54.2795 12.4373L54.3856 12.3573L54.3166 12.2933L54.1945 12.4107H53.892L53.8602 12.2827C53.8708 12.2667 53.9557 12.2507 53.9345 12.224C53.7965 12.0267 53.7487 12.4747 53.4409 12.4747H53.2498L53.1755 12.672C53.9982 12.6453 54.5661 12.656 55.4365 12.6773C55.4312 12.6827 55.4206 12.688 55.3993 12.6987H55.6276V12.672L57.6232 12.8V12.9333H57.3684V13.0613H57.4958L57.3684 13.1893C57.2623 12.7893 57.0818 13.2693 56.9173 12.864C56.6148 12.864 56.5192 12.768 56.2751 12.8L55.7496 12.8533V12.8587H55.6912L55.6276 12.864V12.8587L54.9323 12.864C54.5767 12.9813 54.1415 13.1093 54.03 13.12V13.1093L54.2635 12.9173L54.2529 12.8693H53.9929L53.961 12.9333H53.7593C53.754 12.9013 53.7487 12.8853 53.7434 12.8747L53.1224 12.88L53.1171 12.8907L53.0959 12.88L52.0291 12.8907L51.9813 12.9333H51.8274C51.8964 12.848 51.9017 12.9867 51.9017 12.8907H51.7319C51.7213 12.9013 51.716 12.912 51.7053 12.9227L51.5727 12.8907L51.1852 12.896L51.2011 12.912L50.9305 12.9227V12.928H50.8668V12.9227L50.7925 12.928H50.6067C50.6067 12.9173 50.6067 12.9067 50.6067 12.9013H50.4846V12.928H50.3732L50.3201 12.9013H50.1609C50.145 12.928 50.2139 12.9173 50.0335 12.9173C50.007 12.9173 49.9857 12.912 49.9698 12.9013H49.8477L49.8424 12.9173H49.5877C49.4391 12.9173 49.4231 12.896 49.3329 12.8533C49.1631 12.9387 49.386 12.9173 49.1418 12.9173C48.9773 12.9173 49.0781 12.8747 48.8181 12.8533V12.9813L48.4943 12.8533V12.7627L50.5802 12.72ZM52.3529 19.184H52.6554V22.3787L52.3529 22.2933V19.184ZM41.7061 17.8773L42.1997 18.2293L41.6848 18.2827V18.3467C41.8706 18.3467 42.4279 18.4213 42.481 18.2667C42.534 18.1173 42.1997 18.1387 42.4704 18.0533C42.757 17.9573 42.3377 18.1067 42.741 18.176L42.9321 18.5013L42.9958 18.496L43.1019 18.2773L43.3567 18.352V18.16L43.5955 18.2027L43.6008 19.5467H44.864L44.8906 18.736H45.1294L45.1188 18.72H45.2886C45.2886 18.912 45.2939 18.7147 45.2143 18.816L45.2886 18.8693C45.2992 18.88 45.3364 18.8107 45.3788 18.72H46.1856L46.159 18.736C46.4191 18.7413 47.0135 18.72 47.194 18.736C47.4275 18.7573 47.5655 18.752 47.6504 18.72H48.2024V18.736H48.5103V18.72H49.2161L49.2851 18.736H50.2405L50.2723 18.72H50.9305L51.6735 18.736V18.72H51.8115L51.8062 18.736H52.321L52.3688 18.56H44.2643L43.9777 18.4587H52.4006L52.4325 18.352H43.6911L43.6061 18.2827H52.528L52.8093 17.936L51.44 17.9467V17.9627H51.3816L51.4028 17.9467H50.8349C50.8243 17.952 50.819 17.9573 50.8084 17.9627H50.6332V17.9413L48.6058 17.9627H48.4466V17.9147H48.2502L48.2555 17.9627H47.7141L47.7088 17.9147H47.5496V17.9627H46.0794L45.9414 17.8987V17.9627C45.6283 17.9627 45.3098 17.9627 45.002 17.9627L44.9755 17.9147L41.7061 17.8773ZM42.948 17.28L43.086 17.2747L42.6561 17.056L42.6455 17.0507C42.3801 16.9173 42.0298 16.736 41.6902 16.5653H40.7507L40.5437 16.4053L40.565 16.5653C40.2253 16.5653 40.0873 16.5653 39.7529 16.5653L39.7423 15.6427H39.5619L39.599 16.5653H38.702L38.4685 16.864C35.6449 16.9333 30.9478 17.008 27.8271 16.272C27.6201 16.272 27.8695 16.5333 27.5882 16.6133L27.7262 16.8H27.4184L27.3653 16.6987L27.6148 16.5013L27.5776 16.432L26.8027 16.7093L27.0787 16.5387V16.3467C27.0787 16.1387 27.3547 16.064 27.5298 16.0213V16.1493H27.6944L27.7103 15.28L28.4003 14.9227L28.4586 15.12L27.8058 15.44L27.8271 15.5147L28.4321 15.2747V15.8827H29.2707V16.0747H29.3981V15.8933H30.104V16.0853H30.2313V15.8933L30.8258 15.888C31.0858 15.888 30.8311 15.936 30.9319 16.0107C31.0487 15.9307 31.0434 15.8827 31.1867 15.8827H31.6378L31.675 16.0853L31.7015 15.8827L31.8395 15.888L31.7758 16.0107L33.7024 15.9733C33.8988 15.9733 33.8669 16.0373 33.9041 15.888L35.0134 15.872V16.064H35.3371C35.5123 16.064 35.5123 16.096 35.6609 16.128L35.5388 15.888L36.8551 15.8933V15.6373H37.6936L37.7042 15.8933H37.89L37.9484 15.5733L38.1766 15.6587L39.1956 15.648L39.1903 15.184L40.0714 15.2V14.8693C37.7892 13.856 35.7033 13.1733 33.4689 13.2C30.4808 13.232 28.3578 14.64 25.7412 15.6107L25.9164 15.7653C26.532 15.7653 26.6276 15.856 26.7125 16.1973L26.5002 15.9947L26.0862 16.0693L26.2879 15.872L25.8474 16.0267V15.8933L25.7094 15.8773L25.8474 15.7653L25.582 15.7707L25.72 15.9627L25.4652 15.888C25.4122 16.0213 25.2901 16.0693 25.2052 16.1653L24.9079 15.9467L20.7681 17.648L24.823 17.6L24.7593 17.6267L25.2317 17.616L25.2582 17.5947L26.1605 17.584L26.5055 17.648L26.6966 17.5787L26.8133 17.5733L27.0999 17.568L27.0946 17.5627L27.7368 17.5467L27.6413 17.4933H28.4268L28.4374 17.5307L28.5117 17.4933H29.0212C29.0212 17.4987 29.0212 17.504 29.0159 17.5093H29.2707V17.4933H29.483V17.4987H29.7377V17.4933H29.9766H30.0403H30.1995C31.5157 17.4613 32.832 17.4293 34.1482 17.4027C34.2491 17.4027 34.2756 17.3867 34.2915 17.3547H34.5304L34.4561 17.3973C35.3637 17.3707 36.2659 17.3547 37.1735 17.3333C37.3433 17.3227 37.4123 17.2533 37.5238 17.1627L37.5663 17.344L37.9749 17.1893L38.0068 17.3173L39.6786 17.296C39.6786 17.3173 39.6786 17.3387 39.6733 17.36H39.9758L40.0024 17.296H40.4641H40.4588L40.5331 17.3547H40.6446V17.2907H40.772V17.3547H41.0214C41.0161 17.344 41.0108 17.3333 41.0002 17.3227L41.0055 17.2907L42.948 17.28ZM19.6854 13.9467L22.2648 13.7813V14.1707L20.0198 14.336L19.6854 13.9467ZM12.6742 25.9093V25.92H12.3505V25.8987C12.4619 25.8987 12.5681 25.904 12.6742 25.9093ZM35.2363 28.6347L42.4491 28.7147L42.4916 28.5653H35.1673C34.8117 28.24 34.4402 27.952 34.0527 27.6907L42.1041 27.7707L42.1466 27.6213H33.9466C33.8404 27.552 33.729 27.4827 33.6228 27.4133C33.2778 27.1787 32.9328 26.9813 32.6834 26.9067L32.6144 26.8747V26.768L42.6402 26.8533V26.8693V27.552V28.2347V28.9173V29.6V30.2827H42.6826H42.7251H42.7676H42.81H42.8525H42.895H42.9374H42.9799V30.08V29.8827V29.6853L42.9374 29.5787L42.9799 29.2907V29.0933V28.896V28.6987L43.0382 28.6933L43.0966 28.688L43.155 28.6827L43.2134 28.6773L43.2718 28.672L43.3302 28.6667L43.3885 28.6613L43.4469 28.656V28.8587V29.0613V29.264V29.4667L43.5318 29.7067L43.4575 29.8773L43.4628 30.0853L43.4469 30.2667H43.4682H43.4894H43.5106H43.5318H43.5531H43.5743H43.5955H43.6168V30.064V29.8613V29.6587V29.456V29.2533L43.6008 29.0933L43.6168 28.848V28.6453L43.7282 28.64L43.8397 28.6347L43.9618 28.592L44.0679 28.6187L44.1794 28.6133L44.2908 28.608L44.4023 28.6027L44.5137 28.5973C44.5721 28.9493 44.5403 29.264 44.4447 29.664L44.5137 29.8667V30.08V30.2933H44.5986H44.6676H44.7366H44.8056L45.1559 30.2827L44.9436 29.8347H45.0126H45.0816V28.576H52.7297L52.7828 28.4L45.0816 28.5173V27.6373H51.9017L51.9654 27.4773L45.0922 27.584L45.0816 26.72H52.7085L52.735 26.6133L45.0922 26.6773L45.0816 25.7653L52.3369 25.8293L52.3635 25.696L45.0816 25.7227V24.8107L45.4372 24.7573L45.6336 24.592L43.1019 24.608L42.7092 24.544L42.2581 24.4907L42.2687 24.416H42.7835V24.288H43.2983V24.16H42.205L42.136 24.48L42.0617 24.256L42.136 23.9627C42.7463 24.1067 43.6698 24.1013 43.1019 23.248L43.2877 23.1893L43.3726 23.3813L43.362 21.7653C43.362 21.6053 43.1391 21.6373 42.9746 21.6373V21.5733H43.362V20.3467C43.362 20.2027 43.3089 20.2027 43.2346 20.0853H43.362V19.76C43.362 19.5627 43.4257 19.4987 43.4894 19.3547L42.9746 19.4347V19.2427C42.9746 19.0453 42.9427 19.008 42.895 18.8427L43.1126 18.6507L42.9374 18.6133L42.7729 18.7893L42.7145 19.1627H42.5234V19.5467H42.6561L42.6137 22.896C42.5871 23.0027 42.6296 23.04 42.7145 23.0453C42.8896 23.056 42.9109 22.816 42.9746 22.6773L43.1869 22.7467L43.0436 23.04L42.8525 23.0613L42.826 23.6533L42.6243 23.1733L42.4014 23.648L42.1466 23.632H41.7751V22.6773H41.0214V23.632H40.4747L40.0979 23.648L40.0926 22.2347C40.0926 22.0213 39.9865 22.1867 39.8909 22.16C39.8219 22.4587 39.6839 22.5173 39.5672 22.7413C39.4026 23.0613 39.5672 23.184 39.1054 23.1893L39.1797 22.8053C39.5831 22.7947 39.8485 22.352 39.6945 22.0267H40.082V20.864C40.082 20.688 40.0501 20.688 40.0183 20.5387H40.1457C40.0926 19.9253 39.9068 20.2027 39.6945 19.888C39.9068 19.936 40.082 20.128 40.082 19.824L40.2359 19.792L40.3314 19.5573L42.3536 19.5733V19.0187H39.7476H39.7052H39.3283L39.5778 18.7253H40.6552C40.6499 18.4533 40.6127 17.904 40.4323 17.808H39.5619V17.7227C39.4132 17.8667 39.1373 17.8507 38.6702 17.888L24.2233 18.1813H23.7509L18.6717 18.272L14.3461 18.544H11.9683V18.4267L13.8313 18.224V18.0267L13.9746 18.032L13.9003 18.224L13.9374 18.2827L14.4098 17.8987C14.6751 18.0267 14.8291 18.0533 14.8556 17.728L14.2718 17.648L14.2824 17.5787C14.1072 17.5787 13.8313 17.6213 13.8313 17.4507C13.8313 17.3013 13.8737 17.2587 14.0223 17.2587H14.4098V17.52H14.9883C15.1316 17.52 15.1316 17.5733 15.2324 17.6267L15.4394 17.52C15.588 17.5573 15.6305 17.584 15.8269 17.584C16.071 17.584 16.0763 17.424 16.5328 17.456V17.1947H16.6601L16.6814 17.5573L16.9414 17.712L16.968 17.6587L16.7875 17.2587H17.2387L17.2333 17.744H17.3607L17.366 17.28H17.78L17.5253 17.5947L17.5996 17.7067C17.8172 17.824 18.2524 16.6613 17.366 16.544C17.0157 16.496 16.8247 16.6027 16.5965 16.8053L16.5805 16.6453L16.2727 16.7947L15.5615 16.6773V16.9387L15.8853 16.928L16.3364 16.9387C16.5009 16.9333 16.4001 16.9173 16.5911 16.8747V17.136H16.4001V17.008L16.347 16.9547L16.0816 17.3493V17.088L14.6008 17.0987V16.944H15.5031C15.4607 16.752 15.4076 16.6187 15.1794 16.6187C14.9564 16.6187 15.0785 16.752 14.8609 16.736L14.4204 16.7413L14.2824 16.5547C14.362 16.512 14.3514 16.4907 14.4735 16.4907L15.6942 16.4747L20.9061 16.5547V16.5173L18.401 16.3573H17.4987V16.2293L18.5284 16.2453L22.1374 16.1653H22.1428H22.2011V16.048L18.2683 15.968L14.3461 15.9413L12.2178 15.984V15.68L13.8313 15.504V15.2533H14.2824V15.5093C14.5584 15.472 14.5902 15.0347 14.8503 14.576C15.1847 13.984 15.9065 13.376 16.5221 13.296C16.0551 13.7333 15.2961 14.2453 15.0573 15.3173L15.4341 15.312L15.3439 14.752L16.6018 13.3653L17.0317 13.36L16.8034 13.6587L17.4297 13.3067V13.4987L17.6155 13.4933L17.6898 13.2373H17.1113V12.976H17.3023V12.784H17.6898V12.976H17.8809V13.2373C17.5624 13.344 17.9658 13.52 18.1197 13.5627L18.0719 13.2373C19.4678 13.44 20.0145 14.5227 20.1365 14.7733L22.5249 14.7947C22.7053 14.8 22.8433 14.832 22.8433 14.912L22.8486 16.1493H23.1777L23.1459 14.7413H22.9548V14.4693H23.1459V13.76C22.8115 13.648 23.3635 13.568 23.5333 13.568C23.6766 13.568 23.6766 13.6213 23.7881 13.696L23.7775 14.7467H23.6607V13.696H23.2732V14.6027L23.7085 15.04L23.7138 16.1547H23.8995L23.9208 15.0347L26.1711 15.056L26.272 15.2267C28.7877 13.7973 31.1018 13.1573 33.3627 13.136C35.6025 13.1093 37.7839 13.6853 40.0608 14.6933V14.24C40.0024 14.1973 39.0842 14.0213 38.9833 13.9627L38.9303 13.936L38.8772 13.9093L38.8241 13.8827L38.771 13.856L38.718 13.8293L38.6649 13.8027L38.6118 13.776L38.5588 13.7493H39.5247C39.6043 13.9413 39.8432 13.9413 40.1032 13.9413H40.2306C40.4376 13.9413 40.2784 13.8827 40.5544 13.8133C40.5756 14.0907 40.5915 14.064 40.8728 14.0747L40.8887 14.9707L41.3292 14.976V14.8533H41.5203C41.4779 14.7733 41.4566 14.784 41.4566 14.6613V14.336H41.2656C41.308 14.512 41.3399 14.3467 41.3399 14.48C41.3399 14.7307 41.308 14.6507 41.17 14.784L41.2072 14.176L42.6083 14.336L42.5553 14.08L42.1148 13.9573L42.4969 13.8133V13.9467L44.7473 13.5573V13.6853H45.071L45.0657 13.8027L44.8428 13.8773L44.8534 14.128C43.8715 14.1067 43.638 14.448 42.688 14.1387V14.4L42.7145 14.3253C45.4213 15.488 43.1391 14.9493 43.1391 14.9173H42.948C42.7729 14.9173 42.7729 14.9493 42.5977 14.9387L42.81 14.8053L42.3005 14.5973V14.7893L42.6296 14.8267L42.4279 14.8533V14.9813H42.5022L42.4916 15.1733L41.8281 16.0107L41.9874 16.0213L42.1466 16.032L42.3058 16.0427L42.465 16.0533L42.6243 16.064L42.7835 16.0747L42.9427 16.0853L43.1019 16.096L43.2612 16.1067L43.4204 16.1173L43.5796 16.128L43.7388 16.1387L43.8981 16.1493L44.0573 16.16L44.2165 16.1707L44.3757 16.1813L50.8827 16.1013L53.9876 13.7653C51.2861 13.6107 48.627 13.8827 45.9998 14.0747L45.8671 13.9733L45.5381 14.0213L45.4638 13.6373L45.554 13.5947L45.4797 13.44H45.6708V13.632C45.6708 13.8293 45.7451 13.8133 45.9202 13.824L46.037 13.4987L47.6664 13.4293C47.9583 13.4293 48.1653 13.2907 48.2608 13.4507H48.4625C48.4996 13.4027 48.5421 13.376 48.6323 13.376H48.8234C48.8234 13.4027 48.8022 13.5253 48.7969 13.5467L49.1578 13.568L49.2533 13.424L53.6054 13.376L53.7753 13.44L53.9769 13.392L55.3834 13.4453L56.6731 13.4613L57.5064 13.3813C57.5276 13.4773 57.5223 13.5733 57.6338 13.5733C57.7771 13.5733 57.7771 13.5733 57.8885 13.4933C58.1805 13.6 59.9691 13.6693 60.4627 13.7653V14.1653C59.2685 14.0107 57.7824 13.8453 56.4768 13.8293H56.153V13.76H56.6678L56.9226 13.6693L56.9863 13.648L56.0097 13.5733L56.0893 13.8293H55.4471V13.9733H55.2189L54.7518 14.272L55.3197 14.2773C55.5426 14.2773 55.6859 14.576 55.7709 14.736L56.0256 14.6613V14.8533C56.0256 15.088 56.2273 15.1733 56.4768 15.1787L56.4237 15.2267L57.6126 16.336L57.5966 16.576L55.3357 14.4373L55.0915 14.5973L54.3909 14.6027L54.2317 14.688L54.996 14.6773L54.6669 14.928L53.9026 14.9333L53.7328 15.0347L54.5077 15.04L53.77 15.5147C53.6797 15.4667 53.6638 15.4507 53.5152 15.4507H53.3241C53.0906 15.4507 53.0959 15.5253 52.873 15.5787V15.4507L52.9208 15.4987L53.1755 15.2373L53.08 15.12L53.3294 14.9973L53.271 15.216L53.7063 14.928C53.4833 14.928 52.804 14.8427 52.804 15.056C52.804 15.2053 52.8252 15.1307 52.8624 15.296L52.4909 15.4347C52.5333 15.5147 52.5386 15.5147 52.5386 15.6373L52.4909 15.872H52.6023L52.7191 15.6L53.754 15.5733L53.5205 15.7013H52.7138V15.9627C52.7138 16.144 52.7615 16.1173 52.9048 16.1547L52.9101 17.424L53.6638 17.5947L53.8443 17.3867H53.5205V17.312L53.7753 17.2693L53.7806 16.704L56.0946 17.0987L56.3494 17.312L56.7581 17.296L56.5988 17.104L56.6519 17.0773L57.3153 17.632L56.6094 17.4453L56.1371 17.6L56.1265 17.4187L55.6488 17.5307L53.8602 16.7307L53.8655 17.2107L57.326 18.256L57.5648 18.224L57.5701 18.8053L57.2729 18.8427L57.5223 19.1093L57.5754 19.0667L57.4427 19.3227H57.6975C57.6444 19.552 57.5701 19.6267 57.5701 19.904V20.7467H57.379C57.1455 20.7467 57.188 20.5813 57.1827 20.3627L57.379 20.4213C57.2994 20.304 57.2516 20.3093 57.2516 20.16V19.7707H57.0606C56.8642 19.7707 56.8058 19.9627 56.8058 20.16V20.352H56.6147L56.6041 28.624L57.5117 28.6187L57.2994 28.0053L57.1933 28V24.2987H57.3206L57.326 23.9893L57.517 23.9147L57.4799 23.5733L57.5807 23.7867C57.8461 23.7173 57.8355 23.4293 57.9045 23.1467L57.2516 23.3333L57.3206 23.6L57.0818 23.5413L56.8907 23.7333L56.827 23.6693L57.0818 23.408L57.1296 23.456V23.1307C57.1296 22.9813 57.172 22.9387 57.3206 22.9387H57.5754L57.5276 22.8907L57.7824 22.6293L57.8302 22.6773V22.5493H57.6391C57.6391 21.728 57.6922 22.5653 57.8249 22.0427L57.6391 21.968V22.1707L57.4586 22.0853L57.395 22.0427L57.188 22.2027L57.1933 21.808L57.6444 21.8347V21.4453C57.6444 21.2 57.7665 21.0987 57.862 20.9067L58.966 20.9013L58.7377 21.7707H57.9628V21.8987H58.1539V22.8693H57.8302V23.0027L58.1486 22.9333V23.904C57.9735 23.8613 58.0265 23.84 57.8939 23.84C57.7983 23.84 57.7983 23.92 57.7665 23.968H59.1836L59.1995 24.1867L59.4436 24.032L59.7621 24.1013V23.9733H59.571V23.7813L59.7196 23.776L59.571 23.264C59.4012 23.3067 59.4489 23.328 59.3163 23.328C59.2791 23.328 59.1836 23.2373 59.1252 23.2V23.8453H58.2229V22.9387H58.674C58.8492 22.9387 58.8492 22.9707 58.9978 23.0027C58.8917 22.8587 58.7271 22.7413 58.483 22.7413H58.2282L58.2229 22.16C58.6369 22.1493 58.4724 22.1227 58.6104 21.8347H59.2526C59.173 21.952 59.1252 21.9467 59.1252 22.096V22.3573H59.2526V22.1653H59.3322L59.3163 22.6187L59.1199 22.6347V23.008H58.9925L58.9978 23.1467L59.3163 23.008V22.816L59.433 22.8213L59.5232 23.088L59.7196 22.8587L59.4489 22.6187C59.5816 22.5653 59.64 22.4853 59.64 22.2933C59.64 22.1387 59.5126 22.0053 59.4489 21.904C59.5922 21.872 59.6347 21.8187 59.7727 21.824L60.3512 21.904C60.3512 23.0027 60.4839 22.576 59.9638 22.9387H60.3512V23.9093H60.606V22.9387H60.9297L60.9403 23.888L61.3278 24.032L61.1845 23.8453L61.1898 22.6827V21.84H61.7046C61.8532 21.84 61.8161 21.8827 61.8161 22.032V24.0213H62.0284V20.7413L61.8798 20.784V21.8827C61.832 21.7867 61.8161 21.776 61.6409 21.776H61.1898V21.1307C61.1898 20.9813 61.2322 20.9387 61.3809 20.9387C61.556 20.9387 61.556 20.9707 61.7046 21.0027V20.8747H61.3809C61.2322 20.8747 61.1898 20.832 61.1898 20.6827V19.904L61.7418 19.9147L62.0284 20.6187V19.9147H67.4526V19.7653H62.0284V19.5253H65.3084V19.072L62.0284 18.9973L62.0337 15.8827L62.4317 16.1067V17.12L64.4326 17.632L64.4698 17.2533H64.5972L64.5866 17.6587L65.3084 17.8667L65.319 17.5413L65.0483 17.3173L65.993 17.296L66.269 17.3813L66.2743 17.2267L66.5875 17.3813H67.2297V17.3173H66.6512V17.2533H67.3571L67.4261 17.5787H67.235V17.4507H66.4654V17.648L66.7839 17.5787V17.664H67.2987V17.7707H66.0143V17.7067H66.338C66.3009 17.28 66.2213 17.5467 65.8869 17.3813V17.5093L65.5048 17.5467L65.5154 17.9307L67.1288 18.4427C67.2828 18.4427 67.304 18.4427 68.6202 18.4427L68.5566 18.4L68.5937 18.3413L68.8538 18.432L69.0395 18.2987L69.2465 18.352L69.4058 18.448H70.1488L70.1382 18.1653H70.3239L70.3982 18.2987C70.1276 18.3893 70.3452 18.4267 70.4619 18.4267H70.9131V18.2933L71.1041 18.4213H71.6827L71.5871 18.3413L71.3589 18.2933V18.2293L72.017 18.4427L72.0117 18.224H71.4916L71.481 18.16L72.017 18.1547L72.0117 17.7707L67.4048 17.7813L67.4261 17.664H72.4576V17.76L72.2452 17.776C72.0489 17.776 72.086 17.9787 72.0701 18.16H72.6486V18.0267H72.8397V17.904L72.6486 17.8293H72.8397V17.7067H73.9967L73.933 17.7333L74.1294 18.16H73.9383V18.224H73.0254V18.3733C73.0254 18.4427 73.0838 18.4427 73.2324 18.4427H74.1453L74.1294 18.16L74.7345 18.144L74.7291 17.7013H74.8034C74.8034 18.5013 75.1803 17.8933 75.4191 18.2187L74.8087 18.2027L74.8194 18.4373H74.9892H75.4828L75.7376 18.736V18.544H75.9923C76.2895 18.544 76.125 18.288 76.263 18.0053L76.5018 18.144L76.7619 18.0907V17.8987H76.5708L76.4859 17.7867L76.1144 17.6053L76.332 17.456L76.47 17.6L76.4594 17.5307L77.6801 18.144L77.6695 18.2933L77.7969 18.224L77.9879 18.288V18.4427H77.7969V19.0613L76.5761 19.0667L76.4859 18.912L76.4435 18.9227L76.6027 18.4107C76.3479 18.48 76.3479 18.912 76.3267 19.184H78.6301L78.6036 19.248L77.6695 19.488L77.4147 19.472L77.6376 19.632V19.696H77.4466L77.4253 19.7387L77.5739 20.1493H77.4466V20.0213L77.5102 19.952L77.3404 19.904L77.1918 20.2667L77.4519 20.3467L77.3829 20.4747L77.3192 20.6027V20.7947V20.9867H77.1918L77.2077 21.1573L77.4678 21.3067L77.3829 21.0507L77.4519 20.9227V20.4693L77.5792 20.3413V20.2773L77.5049 20.8L77.6429 20.9867L77.6854 26.144H67.0917V26.2827H77.6854L77.7066 28.6987L72.2134 28.672L76.2418 29.6373L76.2471 33.968H80.1905V47.4293C72.6486 47.8187 64.0452 47.7867 56.1583 47.7387C54.7731 47.7653 54.5183 46.272 57.5966 46.3893H65.6428C63.5304 46.224 61.8055 45.3333 60.4945 43.6533C59.3534 42.1547 60.7227 40.2987 62.0602 42.048L62.4848 42.6133L64.2469 44.9547C64.974 45.8987 65.9506 46.352 67.0386 46.384H72.2187C71.1254 46.2987 70.2337 45.84 69.5544 44.9707L66.0037 40.2667C65.2819 39.3173 64.231 38.896 63.2438 38.896H61.4605H57.7771C58.8598 38.8747 59.7196 39.264 60.4255 39.968C61.4021 40.944 59.7355 42.0693 58.674 41.248L56.8695 38.8533C54.4493 35.6427 57.8089 31.7173 61.2588 31.9787C62.3415 32.0587 63.6259 32.128 65.2765 32.32L64.8626 31.792C60.9563 31.792 57.05 31.792 53.1437 31.792L52.8465 32.32L54.8633 32.0373C58.8651 31.4773 55.7178 36.9333 53.6266 34.5547C52.2308 32.7253 50.198 31.904 48.2926 31.904H44.8375H37.7945L38.7923 33.232H38.8082L45.968 42.688C47.677 44.5867 49.8159 43.136 48.2767 41.0667L43.3779 34.5707C42.0829 32.9653 40.3049 31.872 37.7892 31.904L36.4782 29.9893C36.0961 29.504 35.6768 29.0453 35.2363 28.6347ZM11.8516 25.92V25.9307H10.3389H7.69583C6.23628 25.9307 4.67588 26.5547 3.60908 27.9573L1.87884 30.2507H9.72859L11.4482 27.9733C14.4045 24.256 18.3161 27.0933 20.593 30.0427L22.4347 32.4853L22.3922 32.48L31.7174 44.9173C33.3946 46.9333 35.5919 48.1547 38.5375 48.2187H42.3377C43.0966 48.2347 43.4735 48.512 43.1126 49.2C41.9184 50.8693 39.5725 52.8053 33.299 52.1067L34.127 52.6347L50.7712 52.672C50.9835 52.1653 52.5545 50.112 53.4674 48.944C54.0937 48.144 54.1149 48.2293 55.134 48.2293C64.4061 48.224 77.8924 48.2347 87 48.1653L81.9951 54H32.3755L16.2355 33.5226L0 33.5172L0.00530759 27.1467H1.73554L2.25037 26.9547V23.008L2.38836 22.6187H1.99561L1.93192 22.5547L1.28971 22.4907L1.22603 22.4267V22.0373L1.28971 21.9733L1.67716 21.9093H2.38305L2.31936 21.52L2.19198 21.328V21.136L3.22163 19.52H3.86384L3.92753 19.584V19.8453L3.87445 19.9093L3.90099 19.92L6.95278 19.888V19.648L7.71706 19.3707L7.75421 19.52L11.8357 19.456V19.7813C11.8357 19.8667 11.6924 19.9253 11.4747 19.9573L6.29996 20.0373L5.99213 20.3093L6.05582 20.0427L5.6153 20.1173L5.55692 19.9787L5.01556 20.352L5.08986 20.0427H4.76611L4.68649 20.4267L5.02086 20.432L4.72895 21.328L4.57504 21.264L4.56973 21.408C5.29155 21.392 5.07394 20.7947 5.472 20.5013L5.08455 21.344C5.77452 21.328 5.43485 20.9813 5.85414 20.6987L5.70022 21.1413C6.29996 21.0987 6.42734 20.24 6.49634 20.3093L6.57064 20.3627L6.23097 21.0133C6.70333 20.9813 6.94217 20.368 6.94748 20.3733L7.02178 20.4267C6.86786 20.6453 6.85194 20.9547 6.78825 20.992C6.62903 21.0933 6.72456 20.9333 6.47511 21.1413C6.26281 21.3173 6.37427 21.3653 6.30527 21.152L6.08236 21.4987L6.04521 21.2853L5.76922 21.456C5.60469 21.44 5.67899 21.4187 5.53038 21.4187C5.37116 21.4187 4.98371 21.5467 4.95187 21.68H5.20662L5.72145 21.664C5.91252 21.68 5.80637 21.3493 5.91252 21.68L6.86786 21.088L6.21504 21.6587L6.2522 21.7227L6.77233 21.4773H6.8201L6.60249 21.6693L7.01117 21.5733L7.25 21.7067L7.26062 21.488H7.13324L7.26592 21.232L7.06955 21.2907L7.14385 21.04H6.94217C6.99524 20.8107 6.93686 20.5227 7.26592 20.5227H12.0267V21.6907H12.0904V21.168H12.1966V21.8773H12.0267V22.656H12.0904V22.1387H12.1966V22.848H12.2815V23.04H12.6052C12.8335 23.04 12.8547 23.1947 12.86 23.4293H12.7326V23.6213L12.7167 24.1387L12.7326 24.592C12.7379 24.7627 12.653 24.688 12.6052 24.8107H12.1541V24.9173H12.6689V25.9307H12.3452V25.4987C12.3452 25.1307 12.0214 25.008 12.0214 24.7893V23.9467H12.3452V23.8827H11.9206V25.9253C11.8675 25.9253 11.8144 25.9253 11.756 25.9253H11.9206V25.9467H11.8516V25.92ZM65.6003 38.8747H69.2837H71.067C72.0542 38.8747 73.1051 39.296 73.8269 40.2453L77.3776 44.9493C78.0569 45.8187 78.9486 46.2773 80.0419 46.3627H74.8618C73.7738 46.3307 72.7972 45.872 72.0701 44.9333L70.308 42.592L68.5459 40.2507C67.856 39.4133 66.9272 38.848 65.6003 38.8747ZM52.6395 48.2293L45.1559 48.2187C44.2537 48.2827 43.5478 49.0933 43.4522 49.9733C43.3779 51.0187 43.9246 52.176 45.5434 52.2667C49.4497 52.3467 51.5302 50.368 52.8518 48.9493C53.1384 48.5547 53.7116 48.2347 52.6395 48.2293ZM53.8655 47.4987C54.7943 47.1733 55.0756 46.528 53.7487 46.1173C52.3953 45.7173 51.1905 44.9067 50.2139 43.6427C48.5474 42.064 47.3638 45.5093 49.2798 46.976C50.7128 48.0747 52.4696 47.9893 53.8655 47.4987ZM68.6362 20.912H68.0789V21.1253L68.116 21.4507L68.0789 21.728V22.0267L68.116 22.4213L68.1373 22.7573L68.0789 23.0453V23.2267V23.5253L68.1213 23.824V24.1227V24.4213V24.72L68.047 24.9973L68.0789 25.3227L68.0523 25.648L67.8454 25.6907V26H68.944L68.8591 25.6907L68.668 25.6747L68.6362 20.912ZM68.0842 20.7413H68.6362V20.416H68.4982V20.096H68.3708V20.416H67.925C67.9409 20.432 67.9197 20.4693 67.9409 20.4747C68.0152 20.5227 68.0736 20.6187 68.0842 20.7413ZM70.5893 20.672L71.0829 20.6187L71.1094 20.4107L70.5415 20.416V20.6027L70.4885 20.6187V20.1707L70.7114 20.2187L70.5628 19.92L70.8122 19.7173H70.6212C70.6848 18.9387 71.4969 19.1893 72.2134 19.1893L72.0223 19.0667L70.5999 19.0613L70.653 18.944L70.4248 18.9493L70.3876 19.0667L69.825 19.0507L69.8516 19.3173L70.2496 19.5253L70.2443 20.7787C70.2443 20.9387 70.4301 21.0027 70.5469 21.008L70.6318 21.4027L70.5415 21.6V21.8933V22.1867V22.48L70.584 22.72L70.5415 23.072L70.5946 23.696L70.5415 23.664V23.9573L70.5628 24.3307L70.5415 24.5493L70.6795 24.8907L70.6265 25.1733L70.6795 25.4773L70.5362 25.728H70.4301H70.3239V26.0107H70.5946H71.1466H71.3377V25.728L71.1466 25.6693L71.1413 23.808H72.0276V25.6853H72.1975C72.1975 23.5733 72.7972 23.536 71.1413 23.3813V22.336L71.9746 22.2933V22.32H72.1444V20.2347H71.9746V21.9467H71.1413V21.0347H71.8737V20.9067H71.1413V20.7893H70.6159V20.672H70.5893ZM72.7441 20.7787H73.3757V20.4053L72.7919 20.32L72.5478 20.416L72.5796 20.576L72.7441 20.7787ZM73.381 20.9387L72.7654 20.896L72.8768 21.7867L72.8025 22.064V22.3947V22.7253V23.056L72.8556 23.456L72.8025 23.712V24.0427L72.8344 24.5173L72.7972 24.704L72.8875 25.088L72.9564 25.4187L72.7919 25.696L72.5796 25.728L72.5478 26.0107H72.7919L73.3439 26.08L73.588 26.0107V25.9733H73.7101L73.6995 26.0107H74.8141V25.7547H74.3523V25.744L73.5827 25.7387H73.4288H73.3917L73.3864 23.8187H74.0126V25.2427H74.1825V23.4507H74.0126V23.4773H73.3864C73.381 22.5813 73.381 21.8187 73.381 20.9387ZM73.588 22.0427V22.384H73.9967L74.1666 22.4107V20.6187H73.9967V22.0427H73.588ZM58.4936 16.2293L59.1146 16.2773V16.9707H58.4936V16.2293ZM58.4564 17.1253H59.1199L59.0987 17.904L58.4564 17.8667V17.6373L58.2707 17.5787V17.7067H58.0796C58.1433 17.4613 58.1805 17.5147 58.4564 17.4507V17.1253ZM58.552 18.0853H59.173V18.8267H58.552V18.5333L58.3981 18.4853L58.276 18.5547L58.0796 18.4853V18.3573H58.552V18.0853ZM58.552 18.9813H59.173L59.1836 19.8987L58.552 19.7227V19.504L58.0637 19.76L59.2419 20.0693L59.0456 20.7787L57.9151 20.7733L57.9575 20.352L57.7505 20.3093L57.7559 19.8347L57.9628 19.76L57.8195 19.6427L58.0372 19.264L58.0478 18.88L57.7612 18.9333L57.8355 18.7307L58.3078 18.6453L58.2972 19.4987L58.5573 19.504V18.9813H58.552ZM59.5975 16.3147L60.2185 16.3733V17.056H59.5975V16.3147ZM59.571 17.168H60.192V17.9093L59.571 17.8827V17.168ZM59.5551 18.0693L60.1761 18.1067V18.8107H59.5551V18.0693ZM59.5551 18.9227H60.1761V19.8613H59.5551V18.9227ZM62.6547 16.112L68.2806 16.1067L68.3549 16.24H62.6547V16.112Z" fill="#F9F6F3"/>
</svg>
